<?xml version="1.0" encoding="UTF-8" standalone="no"?><!DOCTYPE svg PUBLIC "-//W3C//DTD SVG 1.1//EN" "http://www.w3.org/Graphics/SVG/1.1/DTD/svg11.dtd"><svg width="100%" height="100%" viewBox="0 0 552 552" version="1.1" xmlns="http://www.w3.org/2000/svg" xmlns:xlink="http://www.w3.org/1999/xlink" xml:space="preserve" style="fill-rule:evenodd;clip-rule:evenodd;stroke-linejoin:round;stroke-miterlimit:1.41421;"><g id="picto"><path d="M275.94,39.74l0.381,0.001l0.381,0.001l0.38,0.002l0.381,0.003l0.381,0.003l0.38,0.004l0.38,0.005l0.38,0.005l0.38,0.006l0.38,0.006l0.38,0.007l0.379,0.008l0.38,0.008l0.379,0.008l0.379,0.01l0.379,0.01l0.379,0.01l0.378,0.011l0.379,0.012l0.378,0.012l0.378,0.013l0.378,0.014l0.378,0.014l0.378,0.014l0.378,0.016l0.377,0.015l0.377,0.017l0.377,0.017l0.377,0.018l0.377,0.018l0.377,0.019l0.376,0.019l0.377,0.02l0.376,0.021l0.376,0.021l0.376,0.022l0.376,0.022l0.375,0.023l0.376,0.023l0.375,0.025l0.375,0.024l0.375,0.026l0.375,0.025l0.374,0.027l0.375,0.027l0.374,0.028l0.374,0.028l0.374,0.029l0.374,0.029l0.374,0.03l0.373,0.03l0.373,0.032l0.374,0.031l0.373,0.033l0.372,0.032l0.373,0.034l0.373,0.034l0.372,0.034l0.372,0.036l0.372,0.035l0.372,0.037l0.372,0.037l0.371,0.037l0.371,0.038l0.372,0.039l0.371,0.039l0.37,0.04l0.371,0.04l0.37,0.041l0.371,0.041l0.37,0.043l0.37,0.042l0.37,0.043l0.369,0.044l0.37,0.045l0.369,0.044l0.369,0.046l0.369,0.046l0.369,0.047l0.368,0.047l0.369,0.048l0.368,0.048l0.368,0.049l0.368,0.049l0.367,0.05l0.368,0.051l0.367,0.051l0.367,0.052l0.367,0.052l0.367,0.053l0.367,0.054l0.366,0.053l0.366,0.055l0.366,0.055l0.366,0.056l0.366,0.056l0.365,0.057l0.366,0.057l0.365,0.058l0.365,0.059l0.364,0.059l0.365,0.059l0.364,0.06l0.364,0.061l0.364,0.061l0.364,0.062l0.364,0.063l0.363,0.062l0.364,0.064l0.363,0.064l0.362,0.065l0.363,0.065l0.363,0.065l0.362,0.067l0.362,0.067l0.362,0.067l0.362,0.068l0.361,0.068l0.361,0.069l0.362,0.07l0.361,0.07l0.36,0.071l0.361,0.071l0.36,0.072l0.36,0.072l0.36,0.073l0.36,0.073l0.36,0.074l0.359,0.075l0.359,0.075l0.359,0.075l0.359,0.076l0.358,0.077l0.359,0.077l0.358,0.078l0.358,0.078l0.358,0.079l0.357,0.08l0.357,0.079l0.358,0.081l0.357,0.081l0.356,0.082l0.357,0.082l0.356,0.082l0.356,0.083l0.356,0.084l0.356,0.084l0.355,0.085l0.356,0.086l0.355,0.085l0.355,0.087l0.354,0.087l0.355,0.087l0.354,0.088l0.354,0.089l0.354,0.089l0.353,0.089l0.354,0.091l0.353,0.09l0.353,0.091l0.353,0.092l0.352,0.092l0.353,0.093l0.352,0.093l0.352,0.094l0.351,0.095l0.352,0.095l0.351,0.095l0.351,0.096l0.351,0.097l0.351,0.097l0.35,0.097l0.35,0.098l0.35,0.099l0.35,0.099l0.349,0.1l0.35,0.1l0.349,0.1l0.348,0.102l0.349,0.101l0.349,0.103l0.348,0.102l0.348,0.104l0.347,0.104l0.348,0.104l0.347,0.105l0.347,0.105l0.694,0.213l0.692,0.214l0.692,0.216l0.691,0.219l0.689,0.221l0.689,0.222l0.688,0.225l0.687,0.227l0.686,0.229l0.686,0.231l0.684,0.232l0.683,0.235l0.682,0.237l0.682,0.239l0.68,0.242l0.68,0.243l0.678,0.245l0.678,0.247l0.676,0.249l0.676,0.251l0.675,0.253l0.673,0.255l0.673,0.257l0.672,0.26l0.67,0.261l0.67,0.263l0.669,0.265l0.668,0.267l0.666,0.269l0.666,0.271l0.665,0.273l0.664,0.275l0.662,0.277l0.662,0.279l0.66,0.28l0.66,0.283l0.659,0.285l0.657,0.287l0.657,0.288l0.655,0.291l0.655,0.292l0.653,0.295l0.652,0.296l0.651,0.298l0.651,0.3l0.649,0.302l0.648,0.304l0.647,0.306l0.646,0.308l0.645,0.31l0.643,0.311l0.643,0.314l0.641,0.315l0.641,0.317l0.639,0.32l0.639,0.321l0.637,0.322l0.636,0.325l0.635,0.327l0.634,0.328l0.632,0.331l0.632,0.332l0.63,0.334l0.63,0.336l0.628,0.338l0.627,0.339l0.626,0.342l0.625,0.343l0.623,0.345l0.623,0.347l0.621,0.349l0.62,0.35l0.619,0.353l0.618,0.354l0.617,0.356l0.615,0.358l0.614,0.359l0.614,0.362l0.612,0.363l0.61,0.365l0.61,0.367l0.608,0.368l0.607,0.37l0.606,0.373l0.605,0.373l0.604,0.376l0.602,0.378l0.601,0.379l0.6,0.381l0.599,0.382l0.597,0.385l0.596,0.386l0.595,0.388l0.594,0.39l0.593,0.391l0.591,0.393l0.59,0.395l0.589,0.397l0.587,0.398l0.586,0.4l0.585,0.402l0.584,0.403l0.582,0.405l0.581,0.407l0.58,0.409l0.579,0.41l0.577,0.412l0.576,0.414l0.575,0.415l0.573,0.417l0.572,0.419l0.571,0.42l0.57,0.422l0.568,0.424l0.567,0.425l0.565,0.427l0.565,0.429l0.563,0.431l0.561,0.432l0.56,0.433l0.559,0.435l0.558,0.437l0.556,0.439l0.555,0.44l0.554,0.442l0.552,0.443l0.551,0.445l0.549,0.447l0.548,0.448l0.547,0.45l0.545,0.452l0.544,0.453l0.543,0.455l0.541,0.456l0.54,0.458l0.538,0.459l0.537,0.461l0.536,0.463l0.534,0.464l0.533,0.466l0.531,0.467l0.53,0.469l0.529,0.471l0.527,0.472l0.526,0.473l0.524,0.476l0.523,0.476l0.521,0.478l0.52,0.48l0.519,0.482l0.517,0.482l0.516,0.485l0.514,0.486l0.513,0.487l0.511,0.489l0.51,0.491l0.508,0.492l0.507,0.493l0.505,0.495l0.504,0.497l0.503,0.498l0.501,0.499l0.499,0.501l0.498,0.502l0.497,0.504l0.495,0.506l0.493,0.507l0.492,0.508l0.491,0.51l0.488,0.511l0.488,0.513l0.486,0.514l0.484,0.516l0.483,0.517l0.481,0.518l0.48,0.52l0.478,0.522l0.477,0.523l0.475,0.524l0.474,0.526l0.472,0.527l0.47,0.529l0.469,0.53l0.468,0.531l0.465,0.533l0.465,0.534l0.462,0.536l0.461,0.537l0.46,0.538l0.458,0.54l0.456,0.541l0.455,0.543l0.453,0.544l0.451,0.545l0.45,0.547l0.449,0.548l0.446,0.549l0.445,0.551l0.444,0.552l0.442,0.554l0.44,0.555l0.438,0.556l0.437,0.557l0.436,0.559l0.433,0.561l0.432,0.561l0.431,0.563l0.428,0.564l0.427,0.566l0.426,0.567l0.423,0.568l0.422,0.569l0.421,0.571l0.418,0.572l0.417,0.574l0.416,0.574l0.413,0.576l0.412,0.578l0.411,0.578l0.408,0.58l0.407,0.581l0.405,0.583l0.404,0.583l0.402,0.585l0.4,0.587l0.398,0.587l0.397,0.589l0.394,0.59l0.394,0.591l0.391,0.593l0.39,0.593l0.388,0.595l0.386,0.597l0.384,0.597l0.383,0.599l0.381,0.6l0.379,0.601l0.378,0.602l0.375,0.604l0.374,0.604l0.372,0.606l0.371,0.607l0.368,0.609l0.367,0.609l0.365,0.611l0.363,0.612l0.361,0.613l0.36,0.615l0.358,0.615l0.356,0.617l0.354,0.617l0.352,0.619l0.351,0.621l0.349,0.621l0.347,0.622l0.345,0.624l0.343,0.625l0.341,0.626l0.34,0.627l0.338,0.628l0.336,0.629l0.334,0.631l0.332,0.631l0.33,0.633l0.329,0.634l0.326,0.635l0.325,0.636l0.323,0.637l0.321,0.638l0.319,0.64l0.317,0.64l0.316,0.642l0.313,0.642l0.312,0.644l0.31,0.645l0.307,0.646l0.306,0.647l0.304,0.648l0.302,0.649l0.301,0.65l0.298,0.651l0.296,0.653l0.294,0.653l0.293,0.655l0.29,0.655l0.289,0.656l0.287,0.658l0.284,0.659l0.283,0.659l0.281,0.661l0.279,0.661l0.277,0.663l0.275,0.664l0.273,0.665l0.271,0.665l0.269,0.667l0.267,0.668l0.265,0.668l0.263,0.67l0.261,0.671l0.259,0.672l0.257,0.672l0.256,0.674l0.253,0.675l0.251,0.675l0.249,0.677l0.247,0.677l0.245,0.679l0.243,0.679l0.241,0.681l0.239,0.681l0.237,0.683l0.235,0.683l0.233,0.684l0.231,0.685l0.229,0.686l0.227,0.687l0.224,0.688l0.223,0.689l0.221,0.69l0.218,0.691l0.217,0.691l0.214,0.693l0.212,0.693l0.106,0.347l0.105,0.348l0.104,0.347l0.104,0.348l0.103,0.348l0.103,0.348l0.102,0.349l0.102,0.348l0.101,0.349l0.101,0.349l0.1,0.349l0.1,0.35l0.099,0.35l0.098,0.35l0.099,0.35l0.097,0.35l0.097,0.351l0.097,0.351l0.096,0.351l0.095,0.351l0.095,0.351l0.094,0.352l0.094,0.352l0.094,0.352l0.092,0.352l0.093,0.353l0.091,0.353l0.091,0.353l0.091,0.353l0.09,0.353l0.09,0.354l0.089,0.354l0.089,0.354l0.088,0.354l0.087,0.354l0.087,0.355l0.086,0.355l0.086,0.355l0.085,0.355l0.085,0.356l0.085,0.356l0.083,0.355l0.083,0.357l0.083,0.356l0.082,0.356l0.082,0.357l0.081,0.357l0.08,0.357l0.08,0.358l0.079,0.357l0.079,0.358l0.079,0.358l0.077,0.358l0.078,0.358l0.076,0.359l0.076,0.359l0.076,0.359l0.075,0.359l0.075,0.359l0.074,0.36l0.073,0.359l0.073,0.36l0.072,0.361l0.072,0.36l0.071,0.36l0.071,0.361l0.07,0.361l0.069,0.361l0.069,0.362l0.069,0.361l0.068,0.362l0.067,0.362l0.067,0.362l0.066,0.362l0.066,0.363l0.065,0.362l0.065,0.363l0.064,0.363l0.063,0.363l0.063,0.364l0.062,0.363l0.062,0.364l0.062,0.364l0.06,0.364l0.06,0.365l0.06,0.364l0.059,0.365l0.059,0.365l0.057,0.365l0.058,0.365l0.057,0.366l0.056,0.366l0.056,0.365l0.055,0.366l0.054,0.367l0.054,0.366l0.054,0.367l0.052,0.366l0.053,0.367l0.051,0.368l0.052,0.367l0.05,0.367l0.05,0.368l0.05,0.368l0.049,0.368l0.048,0.368l0.048,0.368l0.047,0.369l0.047,0.369l0.046,0.369l0.045,0.369l0.045,0.369l0.044,0.369l0.044,0.37l0.043,0.37l0.043,0.37l0.042,0.37l0.042,0.37l0.041,0.371l0.04,0.37l0.04,0.371l0.039,0.371l0.039,0.371l0.038,0.372l0.037,0.371l0.037,0.372l0.036,0.372l0.036,0.372l0.035,0.372l0.035,0.372l0.034,0.373l0.033,0.372l0.033,0.373l0.032,0.373l0.032,0.373l0.031,0.374l0.031,0.373l0.03,0.374l0.029,0.374l0.029,0.373l0.028,0.375l0.028,0.374l0.027,0.374l0.026,0.375l0.026,0.375l0.025,0.375l0.025,0.375l0.024,0.375l0.024,0.375l0.023,0.376l0.022,0.376l0.022,0.376l0.021,0.376l0.021,0.376l0.02,0.376l0.019,0.377l0.019,0.376l0.018,0.377l0.018,0.377l0.017,0.377l0.016,0.378l0.016,0.377l0.015,0.378l0.015,0.377l0.014,0.378l0.014,0.378l0.012,0.379l0.013,0.378l0.011,0.378l0.012,0.379l0.01,0.379l0.01,0.379l0.009,0.379l0.009,0.379l0.008,0.379l0.008,0.38l0.007,0.38l0.006,0.379l0.006,0.38l0.005,0.38l0.004,0.381l0.004,0.38l0.004,0.381l0.002,0.38l0.002,0.381l0.002,0.381l0.001,0.381l0,0.381l0,0.382l-0.001,0.381l-0.002,0.381l-0.002,0.38l-0.002,0.381l-0.004,0.381l-0.004,0.38l-0.004,0.38l-0.005,0.38l-0.006,0.38l-0.006,0.38l-0.007,0.38l-0.008,0.379l-0.008,0.38l-0.009,0.379l-0.009,0.379l-0.01,0.379l-0.01,0.379l-0.012,0.378l-0.011,0.379l-0.013,0.378l-0.012,0.378l-0.014,0.378l-0.014,0.378l-0.015,0.378l-0.015,0.378l-0.016,0.377l-0.016,0.377l-0.017,0.377l-0.018,0.377l-0.018,0.377l-0.019,0.377l-0.019,0.376l-0.02,0.377l-0.021,0.376l-0.021,0.376l-0.022,0.376l-0.022,0.376l-0.023,0.375l-0.024,0.376l-0.024,0.375l-0.025,0.375l-0.025,0.375l-0.026,0.375l-0.026,0.374l-0.027,0.375l-0.028,0.374l-0.028,0.374l-0.029,0.374l-0.029,0.374l-0.03,0.374l-0.031,0.373l-0.031,0.373l-0.032,0.374l-0.032,0.373l-0.033,0.372l-0.033,0.373l-0.034,0.373l-0.035,0.372l-0.035,0.372l-0.036,0.372l-0.036,0.372l-0.037,0.372l-0.037,0.371l-0.038,0.371l-0.039,0.372l-0.039,0.371l-0.04,0.37l-0.04,0.371l-0.041,0.37l-0.042,0.371l-0.042,0.37l-0.043,0.37l-0.043,0.37l-0.044,0.369l-0.044,0.37l-0.045,0.369l-0.045,0.369l-0.046,0.369l-0.047,0.369l-0.047,0.368l-0.048,0.369l-0.048,0.368l-0.049,0.368l-0.05,0.368l-0.05,0.367l-0.05,0.368l-0.052,0.367l-0.051,0.367l-0.053,0.367l-0.052,0.367l-0.054,0.367l-0.054,0.366l-0.054,0.366l-0.055,0.366l-0.056,0.366l-0.056,0.366l-0.057,0.365l-0.058,0.366l-0.057,0.365l-0.059,0.365l-0.059,0.364l-0.06,0.365l-0.06,0.364l-0.06,0.364l-0.062,0.364l-0.062,0.364l-0.062,0.364l-0.063,0.363l-0.063,0.364l-0.064,0.363l-0.065,0.362l-0.065,0.363l-0.066,0.363l-0.066,0.362l-0.067,0.362l-0.067,0.362l-0.068,0.362l-0.069,0.361l-0.069,0.361l-0.069,0.362l-0.07,0.361l-0.071,0.36l-0.071,0.361l-0.072,0.36l-0.072,0.36l-0.073,0.36l-0.073,0.36l-0.074,0.36l-0.075,0.359l-0.075,0.359l-0.076,0.359l-0.076,0.359l-0.076,0.358l-0.078,0.359l-0.077,0.358l-0.079,0.358l-0.079,0.358l-0.079,0.357l-0.08,0.357l-0.08,0.358l-0.081,0.357l-0.082,0.356l-0.082,0.357l-0.083,0.356l-0.083,0.356l-0.083,0.356l-0.085,0.356l-0.085,0.355l-0.085,0.356l-0.086,0.355l-0.086,0.355l-0.087,0.354l-0.087,0.355l-0.088,0.354l-0.089,0.354l-0.089,0.354l-0.09,0.353l-0.09,0.354l-0.091,0.353l-0.091,0.353l-0.091,0.353l-0.093,0.352l-0.092,0.353l-0.094,0.352l-0.094,0.352l-0.094,0.351l-0.095,0.352l-0.095,0.351l-0.096,0.351l-0.097,0.351l-0.097,0.351l-0.097,0.35l-0.099,0.35l-0.098,0.35l-0.099,0.35l-0.1,0.349l-0.1,0.35l-0.101,0.349l-0.101,0.348l-0.102,0.349l-0.102,0.349l-0.103,0.348l-0.103,0.348l-0.104,0.347l-0.104,0.348l-0.105,0.347l-0.106,0.347l-0.212,0.694l-0.214,0.692l-0.217,0.692l-0.218,0.691l-0.221,0.689l-0.223,0.689l-0.224,0.688l-0.227,0.687l-0.229,0.686l-0.231,0.686l-0.233,0.684l-0.235,0.683l-0.237,0.682l-0.239,0.682l-0.241,0.68l-0.243,0.68l-0.245,0.678l-0.247,0.678l-0.249,0.676l-0.251,0.676l-0.253,0.675l-0.256,0.673l-0.257,0.673l-0.259,0.672l-0.261,0.67l-0.263,0.67l-0.265,0.669l-0.267,0.668l-0.269,0.666l-0.271,0.666l-0.273,0.665l-0.275,0.664l-0.277,0.662l-0.279,0.662l-0.281,0.66l-0.283,0.66l-0.284,0.659l-0.287,0.657l-0.289,0.657l-0.29,0.655l-0.293,0.655l-0.294,0.653l-0.296,0.652l-0.298,0.651l-0.301,0.651l-0.302,0.649l-0.304,0.648l-0.306,0.647l-0.307,0.646l-0.31,0.645l-0.312,0.643l-0.313,0.643l-0.316,0.641l-0.317,0.641l-0.319,0.639l-0.321,0.639l-0.323,0.637l-0.325,0.636l-0.326,0.635l-0.329,0.634l-0.33,0.632l-0.332,0.632l-0.334,0.63l-0.336,0.63l-0.338,0.628l-0.34,0.627l-0.341,0.626l-0.343,0.625l-0.345,0.623l-0.347,0.623l-0.349,0.621l-0.351,0.62l-0.352,0.619l-0.354,0.618l-0.356,0.617l-0.358,0.615l-0.36,0.614l-0.361,0.614l-0.363,0.612l-0.365,0.61l-0.367,0.61l-0.368,0.608l-0.371,0.607l-0.372,0.606l-0.374,0.605l-0.375,0.604l-0.378,0.602l-0.379,0.601l-0.381,0.6l-0.383,0.599l-0.384,0.597l-0.386,0.596l-0.388,0.595l-0.39,0.594l-0.391,0.593l-0.394,0.591l-0.394,0.59l-0.397,0.589l-0.398,0.587l-0.4,0.586l-0.402,0.585l-0.404,0.584l-0.405,0.582l-0.407,0.581l-0.408,0.58l-0.411,0.579l-0.412,0.577l-0.413,0.576l-0.416,0.575l-0.417,0.573l-0.418,0.572l-0.421,0.571l-0.422,0.57l-0.423,0.568l-0.426,0.567l-0.427,0.565l-0.428,0.565l-0.431,0.563l-0.432,0.561l-0.433,0.56l-0.436,0.559l-0.437,0.558l-0.438,0.556l-0.44,0.555l-0.442,0.554l-0.444,0.552l-0.445,0.551l-0.446,0.549l-0.449,0.548l-0.45,0.547l-0.451,0.545l-0.453,0.544l-0.455,0.543l-0.456,0.541l-0.458,0.54l-0.46,0.538l-0.461,0.537l-0.462,0.536l-0.465,0.534l-0.465,0.533l-0.468,0.531l-0.469,0.53l-0.47,0.529l-0.472,0.527l-0.474,0.526l-0.475,0.524l-0.477,0.523l-0.478,0.521l-0.48,0.52l-0.481,0.519l-0.483,0.517l-0.484,0.516l-0.486,0.514l-0.488,0.513l-0.488,0.511l-0.491,0.51l-0.492,0.508l-0.493,0.507l-0.495,0.505l-0.497,0.504l-0.498,0.503l-0.499,0.501l-0.501,0.499l-0.503,0.498l-0.504,0.497l-0.505,0.495l-0.507,0.493l-0.508,0.492l-0.51,0.491l-0.511,0.488l-0.513,0.488l-0.514,0.486l-0.516,0.484l-0.517,0.483l-0.519,0.481l-0.52,0.48l-0.521,0.478l-0.523,0.477l-0.524,0.475l-0.526,0.474l-0.527,0.472l-0.529,0.47l-0.53,0.469l-0.531,0.468l-0.533,0.465l-0.534,0.465l-0.536,0.462l-0.537,0.461l-0.538,0.46l-0.54,0.458l-0.541,0.456l-0.543,0.455l-0.544,0.453l-0.545,0.451l-0.547,0.45l-0.548,0.449l-0.549,0.446l-0.551,0.445l-0.552,0.444l-0.554,0.442l-0.555,0.44l-0.556,0.438l-0.558,0.437l-0.559,0.436l-0.56,0.433l-0.561,0.432l-0.563,0.431l-0.565,0.428l-0.565,0.427l-0.567,0.426l-0.568,0.423l-0.57,0.422l-0.571,0.421l-0.572,0.418l-0.573,0.417l-0.575,0.416l-0.576,0.413l-0.577,0.412l-0.579,0.411l-0.58,0.408l-0.581,0.407l-0.582,0.405l-0.584,0.404l-0.585,0.402l-0.586,0.4l-0.587,0.398l-0.589,0.397l-0.59,0.394l-0.591,0.394l-0.593,0.391l-0.594,0.39l-0.595,0.388l-0.596,0.386l-0.597,0.384l-0.599,0.383l-0.6,0.381l-0.601,0.379l-0.602,0.378l-0.604,0.375l-0.605,0.374l-0.606,0.372l-0.607,0.371l-0.608,0.368l-0.61,0.367l-0.61,0.365l-0.612,0.363l-0.614,0.361l-0.614,0.36l-0.615,0.358l-0.617,0.356l-0.618,0.354l-0.619,0.352l-0.62,0.351l-0.621,0.349l-0.623,0.347l-0.623,0.345l-0.625,0.343l-0.626,0.341l-0.627,0.34l-0.628,0.338l-0.63,0.336l-0.63,0.334l-0.632,0.332l-0.632,0.33l-0.634,0.329l-0.635,0.326l-0.636,0.325l-0.637,0.323l-0.639,0.321l-0.639,0.319l-0.641,0.317l-0.641,0.316l-0.643,0.313l-0.643,0.312l-0.645,0.31l-0.646,0.307l-0.647,0.306l-0.648,0.304l-0.649,0.302l-0.651,0.301l-0.651,0.298l-0.652,0.296l-0.653,0.294l-0.655,0.293l-0.655,0.29l-0.657,0.289l-0.657,0.287l-0.659,0.284l-0.66,0.283l-0.66,0.281l-0.662,0.279l-0.662,0.277l-0.664,0.275l-0.665,0.273l-0.666,0.271l-0.666,0.269l-0.668,0.267l-0.669,0.265l-0.67,0.263l-0.67,0.261l-0.672,0.259l-0.673,0.257l-0.673,0.256l-0.675,0.253l-0.676,0.251l-0.676,0.249l-0.678,0.247l-0.678,0.245l-0.68,0.243l-0.68,0.241l-0.682,0.239l-0.682,0.237l-0.683,0.235l-0.684,0.233l-0.686,0.231l-0.686,0.229l-0.687,0.227l-0.688,0.224l-0.689,0.223l-0.689,0.221l-0.691,0.218l-0.692,0.217l-0.692,0.214l-0.694,0.212l-0.347,0.106l-0.347,0.105l-0.348,0.104l-0.347,0.104l-0.348,0.103l-0.348,0.103l-0.349,0.102l-0.349,0.102l-0.348,0.101l-0.349,0.101l-0.35,0.1l-0.349,0.1l-0.35,0.099l-0.35,0.098l-0.35,0.099l-0.35,0.097l-0.351,0.097l-0.351,0.097l-0.351,0.096l-0.351,0.095l-0.352,0.095l-0.351,0.094l-0.352,0.094l-0.352,0.094l-0.353,0.092l-0.352,0.093l-0.353,0.091l-0.353,0.091l-0.353,0.091l-0.354,0.09l-0.353,0.09l-0.354,0.089l-0.354,0.089l-0.354,0.088l-0.355,0.087l-0.354,0.087l-0.355,0.086l-0.355,0.086l-0.356,0.085l-0.355,0.085l-0.356,0.085l-0.356,0.083l-0.356,0.083l-0.356,0.083l-0.357,0.082l-0.356,0.082l-0.357,0.081l-0.358,0.08l-0.357,0.08l-0.357,0.079l-0.358,0.079l-0.358,0.079l-0.358,0.077l-0.359,0.078l-0.358,0.076l-0.359,0.076l-0.359,0.076l-0.359,0.075l-0.359,0.075l-0.36,0.074l-0.36,0.073l-0.36,0.073l-0.36,0.072l-0.36,0.072l-0.361,0.071l-0.36,0.071l-0.361,0.07l-0.362,0.069l-0.361,0.069l-0.361,0.069l-0.362,0.068l-0.362,0.067l-0.362,0.067l-0.362,0.066l-0.363,0.066l-0.363,0.065l-0.362,0.065l-0.363,0.064l-0.364,0.063l-0.363,0.063l-0.364,0.062l-0.364,0.062l-0.364,0.062l-0.364,0.06l-0.364,0.06l-0.365,0.06l-0.364,0.059l-0.365,0.059l-0.365,0.057l-0.366,0.058l-0.365,0.057l-0.366,0.056l-0.366,0.056l-0.366,0.055l-0.366,0.054l-0.366,0.054l-0.367,0.054l-0.367,0.052l-0.367,0.053l-0.367,0.051l-0.367,0.052l-0.368,0.05l-0.367,0.05l-0.368,0.05l-0.368,0.049l-0.368,0.048l-0.369,0.048l-0.368,0.047l-0.369,0.047l-0.369,0.046l-0.369,0.045l-0.369,0.045l-0.37,0.044l-0.369,0.044l-0.37,0.043l-0.37,0.043l-0.37,0.042l-0.371,0.042l-0.37,0.041l-0.371,0.04l-0.37,0.04l-0.371,0.039l-0.372,0.039l-0.371,0.038l-0.371,0.037l-0.372,0.037l-0.372,0.036l-0.372,0.036l-0.372,0.035l-0.372,0.035l-0.373,0.034l-0.373,0.033l-0.372,0.033l-0.373,0.032l-0.374,0.032l-0.373,0.031l-0.373,0.031l-0.374,0.03l-0.374,0.029l-0.374,0.029l-0.374,0.028l-0.374,0.028l-0.375,0.027l-0.374,0.026l-0.375,0.026l-0.375,0.025l-0.375,0.025l-0.375,0.024l-0.376,0.024l-0.375,0.023l-0.376,0.022l-0.376,0.022l-0.376,0.021l-0.376,0.021l-0.377,0.02l-0.376,0.019l-0.377,0.019l-0.377,0.018l-0.377,0.018l-0.377,0.017l-0.377,0.016l-0.377,0.016l-0.378,0.015l-0.378,0.015l-0.378,0.014l-0.378,0.014l-0.378,0.012l-0.378,0.013l-0.379,0.011l-0.378,0.012l-0.379,0.01l-0.379,0.01l-0.379,0.009l-0.379,0.009l-0.38,0.008l-0.379,0.008l-0.38,0.007l-0.38,0.006l-0.38,0.006l-0.38,0.005l-0.38,0.004l-0.38,0.004l-0.381,0.004l-0.381,0.002l-0.38,0.002l-0.381,0.002l-0.381,0.001l-0.382,0l-0.381,0l-0.381,-0.001l-0.381,-0.002l-0.381,-0.002l-0.38,-0.002l-0.381,-0.004l-0.38,-0.004l-0.381,-0.004l-0.38,-0.005l-0.38,-0.006l-0.379,-0.006l-0.38,-0.007l-0.38,-0.008l-0.379,-0.008l-0.379,-0.009l-0.379,-0.009l-0.379,-0.01l-0.379,-0.01l-0.379,-0.012l-0.378,-0.011l-0.378,-0.013l-0.379,-0.012l-0.378,-0.014l-0.378,-0.014l-0.377,-0.015l-0.378,-0.015l-0.377,-0.016l-0.378,-0.016l-0.377,-0.017l-0.377,-0.018l-0.377,-0.018l-0.376,-0.019l-0.377,-0.019l-0.376,-0.02l-0.376,-0.021l-0.376,-0.021l-0.376,-0.022l-0.376,-0.022l-0.376,-0.023l-0.375,-0.024l-0.375,-0.024l-0.375,-0.025l-0.375,-0.025l-0.375,-0.026l-0.375,-0.026l-0.374,-0.027l-0.374,-0.028l-0.375,-0.028l-0.373,-0.029l-0.374,-0.029l-0.374,-0.03l-0.373,-0.031l-0.374,-0.031l-0.373,-0.032l-0.373,-0.032l-0.373,-0.033l-0.372,-0.033l-0.373,-0.034l-0.372,-0.035l-0.372,-0.035l-0.372,-0.036l-0.372,-0.036l-0.372,-0.037l-0.371,-0.037l-0.372,-0.038l-0.371,-0.039l-0.371,-0.039l-0.371,-0.04l-0.37,-0.04l-0.371,-0.041l-0.37,-0.042l-0.37,-0.042l-0.37,-0.043l-0.37,-0.043l-0.37,-0.044l-0.369,-0.044l-0.369,-0.045l-0.369,-0.045l-0.369,-0.046l-0.369,-0.047l-0.369,-0.047l-0.368,-0.048l-0.368,-0.048l-0.368,-0.049l-0.368,-0.05l-0.368,-0.05l-0.367,-0.05l-0.367,-0.052l-0.368,-0.051l-0.367,-0.053l-0.366,-0.052l-0.367,-0.054l-0.366,-0.054l-0.367,-0.054l-0.366,-0.055l-0.365,-0.056l-0.366,-0.056l-0.366,-0.057l-0.365,-0.058l-0.365,-0.057l-0.365,-0.059l-0.365,-0.059l-0.364,-0.06l-0.365,-0.06l-0.364,-0.06l-0.364,-0.062l-0.364,-0.062l-0.363,-0.062l-0.364,-0.063l-0.363,-0.063l-0.363,-0.064l-0.363,-0.065l-0.362,-0.065l-0.363,-0.066l-0.362,-0.066l-0.362,-0.067l-0.362,-0.067l-0.362,-0.068l-0.361,-0.069l-0.362,-0.069l-0.361,-0.069l-0.361,-0.07l-0.361,-0.071l-0.36,-0.071l-0.36,-0.072l-0.361,-0.072l-0.36,-0.073l-0.359,-0.073l-0.36,-0.074l-0.359,-0.075l-0.359,-0.075l-0.359,-0.076l-0.359,-0.076l-0.359,-0.076l-0.358,-0.078l-0.358,-0.077l-0.358,-0.079l-0.358,-0.079l-0.357,-0.079l-0.358,-0.08l-0.357,-0.08l-0.357,-0.081l-0.357,-0.082l-0.356,-0.082l-0.356,-0.083l-0.357,-0.083l-0.355,-0.083l-0.356,-0.085l-0.356,-0.085l-0.355,-0.085l-0.355,-0.086l-0.355,-0.086l-0.355,-0.087l-0.354,-0.087l-0.354,-0.088l-0.354,-0.089l-0.354,-0.089l-0.354,-0.09l-0.353,-0.09l-0.353,-0.091l-0.353,-0.091l-0.353,-0.091l-0.353,-0.093l-0.352,-0.092l-0.352,-0.094l-0.352,-0.094l-0.352,-0.094l-0.351,-0.095l-0.351,-0.095l-0.351,-0.096l-0.351,-0.097l-0.351,-0.097l-0.35,-0.097l-0.35,-0.099l-0.35,-0.098l-0.35,-0.099l-0.35,-0.1l-0.349,-0.1l-0.349,-0.101l-0.349,-0.101l-0.348,-0.102l-0.349,-0.102l-0.348,-0.103l-0.348,-0.103l-0.348,-0.104l-0.347,-0.104l-0.348,-0.105l-0.347,-0.106l-0.693,-0.212l-0.693,-0.214l-0.691,-0.217l-0.691,-0.218l-0.69,-0.221l-0.689,-0.223l-0.688,-0.224l-0.687,-0.227l-0.686,-0.229l-0.685,-0.231l-0.684,-0.233l-0.683,-0.235l-0.683,-0.237l-0.681,-0.239l-0.681,-0.241l-0.679,-0.243l-0.679,-0.245l-0.677,-0.247l-0.677,-0.249l-0.675,-0.251l-0.675,-0.253l-0.674,-0.256l-0.672,-0.257l-0.672,-0.259l-0.671,-0.261l-0.67,-0.263l-0.668,-0.265l-0.668,-0.267l-0.667,-0.269l-0.665,-0.271l-0.665,-0.273l-0.664,-0.275l-0.663,-0.277l-0.661,-0.279l-0.661,-0.281l-0.659,-0.283l-0.659,-0.284l-0.658,-0.287l-0.656,-0.289l-0.655,-0.29l-0.655,-0.293l-0.653,-0.294l-0.653,-0.296l-0.651,-0.298l-0.65,-0.301l-0.649,-0.302l-0.648,-0.304l-0.647,-0.306l-0.646,-0.307l-0.645,-0.31l-0.644,-0.312l-0.642,-0.313l-0.642,-0.316l-0.64,-0.317l-0.64,-0.319l-0.638,-0.321l-0.637,-0.323l-0.636,-0.325l-0.635,-0.326l-0.634,-0.329l-0.633,-0.33l-0.631,-0.332l-0.631,-0.334l-0.629,-0.336l-0.628,-0.338l-0.627,-0.34l-0.626,-0.341l-0.625,-0.343l-0.624,-0.345l-0.622,-0.347l-0.621,-0.349l-0.621,-0.351l-0.619,-0.352l-0.617,-0.354l-0.617,-0.356l-0.615,-0.358l-0.615,-0.36l-0.613,-0.361l-0.612,-0.363l-0.611,-0.365l-0.609,-0.367l-0.609,-0.368l-0.607,-0.371l-0.606,-0.372l-0.604,-0.374l-0.604,-0.375l-0.602,-0.378l-0.601,-0.379l-0.6,-0.381l-0.599,-0.383l-0.597,-0.384l-0.597,-0.386l-0.595,-0.388l-0.593,-0.39l-0.593,-0.391l-0.591,-0.394l-0.59,-0.394l-0.589,-0.397l-0.587,-0.398l-0.587,-0.4l-0.585,-0.402l-0.583,-0.404l-0.583,-0.405l-0.581,-0.407l-0.58,-0.408l-0.578,-0.411l-0.578,-0.412l-0.576,-0.413l-0.574,-0.416l-0.574,-0.417l-0.572,-0.418l-0.571,-0.421l-0.569,-0.422l-0.568,-0.423l-0.567,-0.426l-0.566,-0.427l-0.564,-0.428l-0.563,-0.431l-0.561,-0.432l-0.561,-0.433l-0.559,-0.436l-0.557,-0.437l-0.556,-0.438l-0.555,-0.44l-0.554,-0.442l-0.552,-0.444l-0.551,-0.445l-0.549,-0.446l-0.548,-0.449l-0.547,-0.45l-0.545,-0.451l-0.544,-0.453l-0.543,-0.455l-0.541,-0.456l-0.54,-0.458l-0.538,-0.46l-0.537,-0.461l-0.536,-0.462l-0.534,-0.465l-0.533,-0.465l-0.531,-0.468l-0.53,-0.469l-0.529,-0.47l-0.527,-0.472l-0.526,-0.474l-0.524,-0.475l-0.523,-0.477l-0.522,-0.478l-0.52,-0.48l-0.518,-0.481l-0.517,-0.483l-0.516,-0.484l-0.514,-0.486l-0.513,-0.488l-0.511,-0.488l-0.51,-0.491l-0.508,-0.492l-0.507,-0.493l-0.506,-0.495l-0.504,-0.497l-0.502,-0.498l-0.501,-0.499l-0.499,-0.501l-0.498,-0.503l-0.497,-0.504l-0.495,-0.505l-0.493,-0.507l-0.492,-0.508l-0.491,-0.51l-0.489,-0.511l-0.487,-0.513l-0.486,-0.514l-0.485,-0.516l-0.482,-0.517l-0.482,-0.519l-0.48,-0.52l-0.478,-0.521l-0.476,-0.523l-0.476,-0.524l-0.473,-0.526l-0.472,-0.527l-0.471,-0.529l-0.469,-0.53l-0.467,-0.531l-0.466,-0.533l-0.464,-0.534l-0.463,-0.536l-0.461,-0.537l-0.459,-0.538l-0.458,-0.54l-0.456,-0.541l-0.455,-0.543l-0.453,-0.544l-0.452,-0.545l-0.45,-0.547l-0.448,-0.548l-0.447,-0.549l-0.445,-0.551l-0.443,-0.552l-0.442,-0.554l-0.44,-0.555l-0.439,-0.556l-0.437,-0.558l-0.435,-0.559l-0.433,-0.56l-0.432,-0.561l-0.431,-0.563l-0.429,-0.565l-0.427,-0.565l-0.425,-0.567l-0.424,-0.568l-0.422,-0.57l-0.42,-0.571l-0.419,-0.572l-0.417,-0.573l-0.415,-0.575l-0.414,-0.576l-0.412,-0.577l-0.41,-0.579l-0.409,-0.58l-0.407,-0.581l-0.405,-0.582l-0.403,-0.584l-0.402,-0.585l-0.4,-0.586l-0.398,-0.587l-0.397,-0.589l-0.395,-0.59l-0.393,-0.591l-0.391,-0.593l-0.39,-0.594l-0.388,-0.595l-0.386,-0.596l-0.385,-0.597l-0.382,-0.599l-0.381,-0.6l-0.379,-0.601l-0.378,-0.602l-0.376,-0.604l-0.373,-0.605l-0.373,-0.606l-0.37,-0.607l-0.368,-0.608l-0.367,-0.61l-0.365,-0.61l-0.363,-0.612l-0.362,-0.614l-0.359,-0.614l-0.358,-0.615l-0.356,-0.617l-0.354,-0.618l-0.353,-0.619l-0.35,-0.62l-0.349,-0.621l-0.347,-0.623l-0.345,-0.623l-0.343,-0.625l-0.342,-0.626l-0.339,-0.627l-0.338,-0.628l-0.336,-0.63l-0.334,-0.63l-0.332,-0.632l-0.331,-0.632l-0.328,-0.634l-0.327,-0.635l-0.325,-0.636l-0.322,-0.637l-0.321,-0.639l-0.32,-0.639l-0.317,-0.641l-0.315,-0.641l-0.314,-0.643l-0.311,-0.643l-0.31,-0.645l-0.308,-0.646l-0.306,-0.647l-0.304,-0.648l-0.302,-0.649l-0.3,-0.651l-0.298,-0.651l-0.296,-0.652l-0.295,-0.653l-0.292,-0.655l-0.291,-0.655l-0.288,-0.657l-0.287,-0.657l-0.285,-0.659l-0.283,-0.66l-0.28,-0.66l-0.279,-0.662l-0.277,-0.662l-0.275,-0.664l-0.273,-0.665l-0.271,-0.666l-0.269,-0.666l-0.267,-0.668l-0.265,-0.669l-0.263,-0.67l-0.261,-0.67l-0.26,-0.672l-0.257,-0.673l-0.255,-0.673l-0.253,-0.675l-0.251,-0.676l-0.249,-0.676l-0.247,-0.678l-0.245,-0.678l-0.243,-0.68l-0.242,-0.68l-0.239,-0.682l-0.237,-0.682l-0.235,-0.683l-0.232,-0.684l-0.231,-0.686l-0.229,-0.686l-0.227,-0.687l-0.225,-0.688l-0.222,-0.689l-0.221,-0.689l-0.219,-0.691l-0.216,-0.692l-0.214,-0.692l-0.213,-0.694l-0.105,-0.347l-0.105,-0.347l-0.104,-0.348l-0.104,-0.347l-0.104,-0.348l-0.102,-0.348l-0.103,-0.349l-0.101,-0.349l-0.102,-0.348l-0.1,-0.349l-0.1,-0.35l-0.1,-0.349l-0.099,-0.35l-0.099,-0.35l-0.098,-0.35l-0.097,-0.35l-0.097,-0.351l-0.097,-0.351l-0.096,-0.351l-0.095,-0.351l-0.095,-0.352l-0.095,-0.351l-0.094,-0.352l-0.093,-0.352l-0.093,-0.353l-0.092,-0.352l-0.092,-0.353l-0.091,-0.353l-0.09,-0.353l-0.091,-0.354l-0.089,-0.353l-0.089,-0.354l-0.089,-0.354l-0.088,-0.354l-0.087,-0.355l-0.087,-0.354l-0.087,-0.355l-0.085,-0.355l-0.086,-0.356l-0.085,-0.355l-0.084,-0.356l-0.084,-0.356l-0.083,-0.356l-0.082,-0.356l-0.082,-0.357l-0.082,-0.356l-0.081,-0.357l-0.081,-0.358l-0.079,-0.357l-0.08,-0.357l-0.079,-0.358l-0.078,-0.358l-0.078,-0.358l-0.077,-0.359l-0.077,-0.358l-0.076,-0.359l-0.075,-0.359l-0.075,-0.359l-0.075,-0.359l-0.074,-0.36l-0.073,-0.36l-0.073,-0.36l-0.072,-0.36l-0.072,-0.36l-0.071,-0.361l-0.071,-0.36l-0.07,-0.361l-0.07,-0.362l-0.069,-0.361l-0.068,-0.361l-0.068,-0.362l-0.067,-0.362l-0.067,-0.362l-0.067,-0.362l-0.065,-0.363l-0.065,-0.363l-0.065,-0.362l-0.064,-0.363l-0.064,-0.364l-0.062,-0.363l-0.063,-0.364l-0.062,-0.364l-0.061,-0.364l-0.061,-0.364l-0.06,-0.364l-0.059,-0.365l-0.059,-0.364l-0.059,-0.365l-0.058,-0.365l-0.057,-0.366l-0.057,-0.365l-0.056,-0.366l-0.056,-0.366l-0.055,-0.366l-0.055,-0.366l-0.053,-0.366l-0.054,-0.367l-0.053,-0.367l-0.052,-0.367l-0.052,-0.367l-0.051,-0.367l-0.051,-0.368l-0.05,-0.367l-0.049,-0.368l-0.049,-0.368l-0.048,-0.368l-0.048,-0.369l-0.047,-0.368l-0.047,-0.369l-0.046,-0.369l-0.046,-0.369l-0.044,-0.369l-0.045,-0.37l-0.044,-0.369l-0.043,-0.37l-0.042,-0.37l-0.043,-0.37l-0.041,-0.371l-0.041,-0.37l-0.04,-0.371l-0.04,-0.37l-0.039,-0.371l-0.039,-0.372l-0.038,-0.371l-0.037,-0.371l-0.037,-0.372l-0.037,-0.372l-0.035,-0.372l-0.036,-0.372l-0.034,-0.372l-0.034,-0.373l-0.034,-0.373l-0.032,-0.372l-0.033,-0.373l-0.031,-0.374l-0.032,-0.373l-0.03,-0.373l-0.03,-0.374l-0.029,-0.374l-0.029,-0.374l-0.028,-0.374l-0.028,-0.374l-0.027,-0.375l-0.027,-0.374l-0.025,-0.375l-0.026,-0.375l-0.024,-0.375l-0.025,-0.375l-0.023,-0.376l-0.023,-0.375l-0.022,-0.376l-0.022,-0.376l-0.021,-0.376l-0.021,-0.376l-0.02,-0.377l-0.019,-0.376l-0.019,-0.377l-0.018,-0.377l-0.018,-0.377l-0.017,-0.377l-0.017,-0.377l-0.015,-0.377l-0.016,-0.378l-0.014,-0.378l-0.014,-0.378l-0.014,-0.378l-0.013,-0.378l-0.012,-0.378l-0.012,-0.379l-0.011,-0.378l-0.01,-0.379l-0.01,-0.379l-0.01,-0.379l-0.008,-0.379l-0.008,-0.38l-0.008,-0.379l-0.007,-0.38l-0.006,-0.38l-0.006,-0.38l-0.005,-0.38l-0.005,-0.38l-0.004,-0.38l-0.003,-0.381l-0.003,-0.381l-0.002,-0.38l-0.001,-0.381l-0.001,-0.381l0,-0.382l0,-0.381l0.001,-0.381l0.001,-0.381l0.002,-0.381l0.003,-0.38l0.003,-0.381l0.004,-0.38l0.005,-0.381l0.005,-0.38l0.006,-0.38l0.006,-0.379l0.007,-0.38l0.008,-0.38l0.008,-0.379l0.008,-0.379l0.01,-0.379l0.01,-0.379l0.01,-0.379l0.011,-0.379l0.012,-0.378l0.012,-0.378l0.013,-0.379l0.014,-0.378l0.014,-0.378l0.014,-0.377l0.016,-0.378l0.015,-0.377l0.017,-0.378l0.017,-0.377l0.018,-0.377l0.018,-0.377l0.019,-0.376l0.019,-0.377l0.02,-0.376l0.021,-0.376l0.021,-0.376l0.022,-0.376l0.022,-0.376l0.023,-0.376l0.023,-0.375l0.025,-0.375l0.024,-0.375l0.026,-0.375l0.025,-0.375l0.027,-0.375l0.027,-0.374l0.028,-0.374l0.028,-0.375l0.029,-0.373l0.029,-0.374l0.03,-0.374l0.03,-0.373l0.032,-0.374l0.031,-0.373l0.033,-0.373l0.032,-0.373l0.034,-0.372l0.034,-0.373l0.034,-0.372l0.036,-0.372l0.035,-0.372l0.037,-0.372l0.037,-0.372l0.037,-0.371l0.038,-0.372l0.039,-0.371l0.039,-0.371l0.04,-0.371l0.04,-0.37l0.041,-0.371l0.041,-0.37l0.043,-0.37l0.042,-0.37l0.043,-0.37l0.044,-0.37l0.045,-0.369l0.044,-0.369l0.046,-0.369l0.046,-0.369l0.047,-0.369l0.047,-0.369l0.048,-0.368l0.048,-0.368l0.049,-0.368l0.049,-0.368l0.05,-0.368l0.051,-0.367l0.051,-0.367l0.052,-0.368l0.052,-0.367l0.053,-0.366l0.054,-0.367l0.053,-0.366l0.055,-0.367l0.055,-0.366l0.056,-0.365l0.056,-0.366l0.057,-0.366l0.057,-0.365l0.058,-0.365l0.059,-0.365l0.059,-0.365l0.059,-0.364l0.06,-0.365l0.061,-0.364l0.061,-0.364l0.062,-0.364l0.063,-0.363l0.062,-0.364l0.064,-0.363l0.064,-0.363l0.065,-0.363l0.065,-0.362l0.065,-0.363l0.067,-0.362l0.067,-0.362l0.067,-0.362l0.068,-0.362l0.068,-0.361l0.069,-0.362l0.07,-0.361l0.07,-0.361l0.071,-0.361l0.071,-0.36l0.072,-0.36l0.072,-0.361l0.073,-0.36l0.073,-0.359l0.074,-0.36l0.075,-0.359l0.075,-0.359l0.075,-0.359l0.076,-0.359l0.077,-0.359l0.077,-0.358l0.078,-0.358l0.078,-0.358l0.079,-0.358l0.08,-0.357l0.079,-0.358l0.081,-0.357l0.081,-0.357l0.082,-0.357l0.082,-0.356l0.082,-0.356l0.083,-0.357l0.084,-0.355l0.084,-0.356l0.085,-0.356l0.086,-0.355l0.085,-0.355l0.087,-0.355l0.087,-0.355l0.087,-0.354l0.088,-0.354l0.089,-0.354l0.089,-0.354l0.089,-0.354l0.091,-0.353l0.09,-0.353l0.091,-0.353l0.092,-0.353l0.092,-0.353l0.093,-0.352l0.093,-0.352l0.094,-0.352l0.095,-0.352l0.095,-0.351l0.095,-0.351l0.096,-0.351l0.097,-0.351l0.097,-0.351l0.097,-0.35l0.098,-0.35l0.099,-0.35l0.099,-0.35l0.1,-0.35l0.1,-0.349l0.1,-0.349l0.102,-0.349l0.101,-0.348l0.103,-0.349l0.102,-0.348l0.104,-0.348l0.104,-0.348l0.104,-0.347l0.105,-0.348l0.105,-0.347l0.213,-0.693l0.214,-0.693l0.216,-0.691l0.219,-0.691l0.221,-0.69l0.222,-0.689l0.225,-0.688l0.227,-0.687l0.229,-0.686l0.231,-0.685l0.232,-0.684l0.235,-0.683l0.237,-0.683l0.239,-0.681l0.242,-0.681l0.243,-0.679l0.245,-0.679l0.247,-0.677l0.249,-0.677l0.251,-0.675l0.253,-0.675l0.255,-0.674l0.257,-0.672l0.26,-0.672l0.261,-0.671l0.263,-0.67l0.265,-0.668l0.267,-0.668l0.269,-0.667l0.271,-0.665l0.273,-0.665l0.275,-0.664l0.277,-0.663l0.279,-0.661l0.28,-0.661l0.283,-0.659l0.285,-0.659l0.287,-0.658l0.288,-0.656l0.291,-0.655l0.292,-0.655l0.295,-0.653l0.296,-0.653l0.298,-0.651l0.3,-0.65l0.302,-0.649l0.304,-0.648l0.306,-0.647l0.308,-0.646l0.31,-0.645l0.311,-0.644l0.314,-0.642l0.315,-0.642l0.317,-0.64l0.32,-0.64l0.321,-0.638l0.322,-0.637l0.325,-0.636l0.327,-0.635l0.328,-0.634l0.331,-0.633l0.332,-0.631l0.334,-0.631l0.336,-0.629l0.338,-0.628l0.339,-0.627l0.342,-0.626l0.343,-0.625l0.345,-0.624l0.347,-0.622l0.349,-0.621l0.35,-0.621l0.353,-0.619l0.354,-0.617l0.356,-0.617l0.358,-0.615l0.359,-0.615l0.362,-0.613l0.363,-0.612l0.365,-0.611l0.367,-0.609l0.368,-0.609l0.37,-0.607l0.373,-0.606l0.373,-0.604l0.376,-0.604l0.378,-0.602l0.379,-0.601l0.381,-0.6l0.382,-0.599l0.385,-0.597l0.386,-0.597l0.388,-0.595l0.39,-0.593l0.391,-0.593l0.393,-0.591l0.395,-0.59l0.397,-0.589l0.398,-0.587l0.4,-0.587l0.402,-0.585l0.403,-0.583l0.405,-0.583l0.407,-0.581l0.409,-0.58l0.41,-0.578l0.412,-0.578l0.414,-0.576l0.415,-0.574l0.417,-0.574l0.419,-0.572l0.42,-0.571l0.422,-0.569l0.424,-0.568l0.425,-0.567l0.427,-0.566l0.429,-0.564l0.431,-0.563l0.432,-0.561l0.433,-0.561l0.435,-0.559l0.437,-0.557l0.439,-0.556l0.44,-0.555l0.442,-0.554l0.443,-0.552l0.445,-0.551l0.447,-0.549l0.448,-0.548l0.45,-0.547l0.452,-0.545l0.453,-0.544l0.455,-0.543l0.456,-0.541l0.458,-0.54l0.459,-0.538l0.461,-0.537l0.463,-0.536l0.464,-0.534l0.466,-0.533l0.467,-0.531l0.469,-0.53l0.471,-0.529l0.472,-0.527l0.473,-0.526l0.476,-0.524l0.476,-0.523l0.478,-0.522l0.48,-0.52l0.482,-0.518l0.482,-0.517l0.485,-0.516l0.486,-0.514l0.487,-0.513l0.489,-0.511l0.491,-0.51l0.492,-0.508l0.493,-0.507l0.495,-0.506l0.497,-0.504l0.498,-0.502l0.499,-0.501l0.501,-0.499l0.502,-0.498l0.504,-0.497l0.506,-0.495l0.507,-0.493l0.508,-0.492l0.51,-0.491l0.511,-0.489l0.513,-0.487l0.514,-0.486l0.516,-0.485l0.517,-0.482l0.518,-0.482l0.52,-0.48l0.522,-0.478l0.523,-0.476l0.524,-0.476l0.526,-0.473l0.527,-0.472l0.529,-0.471l0.53,-0.469l0.531,-0.467l0.533,-0.466l0.534,-0.464l0.536,-0.463l0.537,-0.461l0.538,-0.459l0.54,-0.458l0.541,-0.456l0.543,-0.455l0.544,-0.453l0.545,-0.452l0.547,-0.45l0.548,-0.448l0.549,-0.447l0.551,-0.445l0.552,-0.443l0.554,-0.442l0.555,-0.44l0.556,-0.439l0.557,-0.437l0.559,-0.435l0.561,-0.433l0.561,-0.432l0.563,-0.431l0.564,-0.429l0.566,-0.427l0.567,-0.425l0.568,-0.424l0.569,-0.422l0.571,-0.42l0.572,-0.419l0.574,-0.417l0.574,-0.415l0.576,-0.414l0.578,-0.412l0.578,-0.41l0.58,-0.409l0.581,-0.407l0.583,-0.405l0.583,-0.403l0.585,-0.402l0.587,-0.4l0.587,-0.398l0.589,-0.397l0.59,-0.395l0.591,-0.393l0.593,-0.391l0.593,-0.39l0.595,-0.388l0.597,-0.386l0.597,-0.385l0.599,-0.382l0.6,-0.381l0.601,-0.379l0.602,-0.378l0.604,-0.376l0.604,-0.373l0.606,-0.373l0.607,-0.37l0.609,-0.368l0.609,-0.367l0.611,-0.365l0.612,-0.363l0.613,-0.362l0.615,-0.359l0.615,-0.358l0.617,-0.356l0.617,-0.354l0.619,-0.353l0.621,-0.35l0.621,-0.349l0.622,-0.347l0.624,-0.345l0.625,-0.343l0.626,-0.342l0.627,-0.339l0.628,-0.338l0.629,-0.336l0.631,-0.334l0.631,-0.332l0.633,-0.331l0.634,-0.328l0.635,-0.327l0.636,-0.325l0.637,-0.322l0.638,-0.321l0.64,-0.32l0.64,-0.317l0.642,-0.315l0.642,-0.314l0.644,-0.311l0.645,-0.31l0.646,-0.308l0.647,-0.306l0.648,-0.304l0.649,-0.302l0.65,-0.3l0.651,-0.298l0.653,-0.296l0.653,-0.295l0.655,-0.292l0.655,-0.291l0.656,-0.288l0.658,-0.287l0.659,-0.285l0.659,-0.283l0.661,-0.28l0.661,-0.279l0.663,-0.277l0.664,-0.275l0.665,-0.273l0.665,-0.271l0.667,-0.269l0.668,-0.267l0.668,-0.265l0.67,-0.263l0.671,-0.261l0.672,-0.26l0.672,-0.257l0.674,-0.255l0.675,-0.253l0.675,-0.251l0.677,-0.249l0.677,-0.247l0.679,-0.245l0.679,-0.243l0.681,-0.242l0.681,-0.239l0.683,-0.237l0.683,-0.235l0.684,-0.232l0.685,-0.231l0.686,-0.229l0.687,-0.227l0.688,-0.225l0.689,-0.222l0.69,-0.221l0.691,-0.219l0.691,-0.216l0.693,-0.214l0.693,-0.213l0.347,-0.105l0.348,-0.105l0.347,-0.104l0.348,-0.104l0.348,-0.104l0.348,-0.102l0.349,-0.103l0.348,-0.101l0.349,-0.102l0.349,-0.1l0.349,-0.1l0.35,-0.1l0.35,-0.099l0.35,-0.099l0.35,-0.098l0.35,-0.097l0.351,-0.097l0.351,-0.097l0.351,-0.096l0.351,-0.095l0.351,-0.095l0.352,-0.095l0.352,-0.094l0.352,-0.093l0.352,-0.093l0.353,-0.092l0.353,-0.092l0.353,-0.091l0.353,-0.09l0.353,-0.091l0.354,-0.089l0.354,-0.089l0.354,-0.089l0.354,-0.088l0.354,-0.087l0.355,-0.087l0.355,-0.087l0.355,-0.085l0.355,-0.086l0.356,-0.085l0.356,-0.084l0.355,-0.084l0.357,-0.083l0.356,-0.082l0.356,-0.082l0.357,-0.082l0.357,-0.081l0.357,-0.081l0.358,-0.079l0.357,-0.08l0.358,-0.079l0.358,-0.078l0.358,-0.078l0.358,-0.077l0.359,-0.077l0.359,-0.076l0.359,-0.075l0.359,-0.075l0.359,-0.075l0.36,-0.074l0.359,-0.073l0.36,-0.073l0.361,-0.072l0.36,-0.072l0.36,-0.071l0.361,-0.071l0.361,-0.07l0.361,-0.07l0.362,-0.069l0.361,-0.068l0.362,-0.068l0.362,-0.067l0.362,-0.067l0.362,-0.067l0.363,-0.065l0.362,-0.065l0.363,-0.065l0.363,-0.064l0.363,-0.064l0.364,-0.062l0.363,-0.063l0.364,-0.062l0.364,-0.061l0.364,-0.061l0.365,-0.06l0.364,-0.059l0.365,-0.059l0.365,-0.059l0.365,-0.058l0.365,-0.057l0.366,-0.057l0.366,-0.056l0.365,-0.056l0.366,-0.055l0.367,-0.055l0.366,-0.053l0.367,-0.054l0.366,-0.053l0.367,-0.052l0.368,-0.052l0.367,-0.051l0.367,-0.051l0.368,-0.05l0.368,-0.049l0.368,-0.049l0.368,-0.048l0.368,-0.048l0.369,-0.047l0.369,-0.047l0.369,-0.046l0.369,-0.046l0.369,-0.044l0.369,-0.045l0.37,-0.044l0.37,-0.043l0.37,-0.042l0.37,-0.043l0.37,-0.041l0.371,-0.041l0.37,-0.04l0.371,-0.04l0.371,-0.039l0.371,-0.039l0.372,-0.038l0.371,-0.037l0.372,-0.037l0.372,-0.037l0.372,-0.035l0.372,-0.036l0.372,-0.034l0.373,-0.034l0.372,-0.034l0.373,-0.032l0.373,-0.033l0.373,-0.031l0.374,-0.032l0.373,-0.03l0.374,-0.03l0.374,-0.029l0.373,-0.029l0.375,-0.028l0.374,-0.028l0.374,-0.027l0.375,-0.027l0.375,-0.025l0.375,-0.026l0.375,-0.024l0.375,-0.025l0.375,-0.023l0.376,-0.023l0.376,-0.022l0.376,-0.022l0.376,-0.021l0.376,-0.021l0.376,-0.02l0.377,-0.019l0.376,-0.019l0.377,-0.018l0.377,-0.018l0.377,-0.017l0.378,-0.017l0.377,-0.015l0.378,-0.016l0.377,-0.014l0.378,-0.014l0.378,-0.014l0.379,-0.013l0.378,-0.012l0.378,-0.012l0.379,-0.011l0.379,-0.01l0.379,-0.01l0.379,-0.01l0.379,-0.008l0.379,-0.008l0.38,-0.008l0.38,-0.007l0.379,-0.006l0.38,-0.006l0.38,-0.005l0.381,-0.005l0.38,-0.004l0.381,-0.003l0.38,-0.003l0.381,-0.002l0.381,-0.001l0.381,-0.001l0.381,0l0.382,0Zm-0.744,11.979l-0.362,0.001l-0.362,0.001l-0.362,0.002l-0.361,0.003l-0.362,0.003l-0.361,0.004l-0.362,0.004l-0.361,0.005l-0.361,0.005l-0.361,0.006l-0.36,0.007l-0.361,0.007l-0.36,0.008l-0.36,0.008l-0.36,0.009l-0.36,0.009l-0.36,0.01l-0.36,0.011l-0.359,0.011l-0.36,0.012l-0.359,0.012l-0.359,0.013l-0.359,0.013l-0.359,0.014l-0.358,0.015l-0.359,0.015l-0.358,0.015l-0.358,0.017l-0.358,0.016l-0.358,0.018l-0.358,0.017l-0.357,0.019l-0.358,0.019l-0.357,0.019l-0.357,0.021l-0.357,0.02l-0.357,0.021l-0.357,0.022l-0.356,0.023l-0.356,0.022l-0.357,0.024l-0.356,0.024l-0.356,0.024l-0.355,0.026l-0.356,0.025l-0.355,0.027l-0.355,0.026l-0.356,0.028l-0.354,0.028l-0.355,0.028l-0.355,0.029l-0.354,0.03l-0.355,0.03l-0.354,0.03l-0.354,0.031l-0.353,0.032l-0.354,0.032l-0.354,0.033l-0.353,0.034l-0.353,0.034l-0.353,0.034l-0.353,0.035l-0.353,0.036l-0.352,0.036l-0.352,0.037l-0.353,0.037l-0.352,0.038l-0.351,0.038l-0.352,0.039l-0.352,0.039l-0.351,0.04l-0.351,0.04l-0.351,0.042l-0.351,0.041l-0.351,0.042l-0.35,0.043l-0.35,0.043l-0.351,0.044l-0.35,0.044l-0.349,0.045l-0.35,0.045l-0.349,0.046l-0.35,0.046l-0.349,0.047l-0.349,0.048l-0.349,0.048l-0.348,0.048l-0.349,0.05l-0.348,0.049l-0.348,0.05l-0.348,0.051l-0.348,0.051l-0.347,0.052l-0.348,0.052l-0.347,0.053l-0.347,0.054l-0.347,0.054l-0.347,0.054l-0.346,0.055l-0.346,0.055l-0.346,0.056l-0.346,0.057l-0.346,0.057l-0.346,0.058l-0.345,0.058l-0.345,0.058l-0.346,0.06l-0.345,0.059l-0.344,0.061l-0.345,0.06l-0.344,0.062l-0.344,0.062l-0.344,0.062l-0.344,0.063l-0.344,0.063l-0.343,0.064l-0.343,0.065l-0.343,0.064l-0.343,0.066l-0.343,0.066l-0.342,0.066l-0.343,0.068l-0.342,0.067l-0.342,0.068l-0.341,0.069l-0.342,0.069l-0.341,0.07l-0.341,0.07l-0.341,0.07l-0.341,0.072l-0.341,0.071l-0.34,0.073l-0.34,0.072l-0.34,0.074l-0.34,0.073l-0.34,0.075l-0.339,0.075l-0.34,0.075l-0.339,0.076l-0.339,0.076l-0.338,0.077l-0.339,0.077l-0.338,0.078l-0.338,0.079l-0.338,0.079l-0.338,0.079l-0.337,0.08l-0.338,0.08l-0.337,0.081l-0.337,0.082l-0.336,0.082l-0.337,0.082l-0.336,0.083l-0.336,0.084l-0.336,0.084l-0.336,0.084l-0.335,0.085l-0.336,0.086l-0.335,0.086l-0.335,0.086l-0.334,0.087l-0.335,0.088l-0.334,0.088l-0.334,0.088l-0.334,0.09l-0.334,0.089l-0.333,0.09l-0.333,0.091l-0.333,0.091l-0.333,0.091l-0.333,0.092l-0.332,0.093l-0.333,0.093l-0.332,0.094l-0.331,0.094l-0.332,0.094l-0.332,0.095l-0.331,0.096l-0.331,0.096l-0.33,0.096l-0.331,0.097l-0.33,0.098l-0.331,0.098l-0.329,0.098l-0.33,0.099l-0.33,0.1l-0.324,0.098l-0.663,0.203l-0.657,0.204l-0.656,0.205l-0.655,0.208l-0.655,0.209l-0.653,0.211l-0.653,0.213l-0.652,0.215l-0.651,0.218l-0.65,0.219l-0.649,0.221l-0.649,0.223l-0.647,0.224l-0.646,0.227l-0.646,0.229l-0.645,0.231l-0.644,0.232l-0.642,0.235l-0.642,0.236l-0.641,0.238l-0.641,0.24l-0.639,0.242l-0.638,0.244l-0.637,0.246l-0.637,0.248l-0.635,0.25l-0.635,0.251l-0.633,0.254l-0.633,0.255l-0.632,0.257l-0.63,0.259l-0.63,0.261l-0.629,0.263l-0.628,0.264l-0.627,0.267l-0.626,0.268l-0.625,0.27l-0.623,0.272l-0.623,0.274l-0.622,0.276l-0.621,0.277l-0.62,0.28l-0.619,0.281l-0.618,0.283l-0.617,0.285l-0.616,0.286l-0.615,0.289l-0.614,0.29l-0.613,0.292l-0.612,0.294l-0.611,0.296l-0.61,0.297l-0.609,0.3l-0.608,0.301l-0.606,0.303l-0.606,0.304l-0.605,0.307l-0.604,0.308l-0.602,0.31l-0.602,0.312l-0.6,0.313l-0.6,0.315l-0.598,0.318l-0.597,0.318l-0.597,0.321l-0.595,0.322l-0.594,0.324l-0.593,0.326l-0.592,0.328l-0.59,0.329l-0.59,0.331l-0.589,0.333l-0.587,0.334l-0.587,0.336l-0.585,0.338l-0.584,0.34l-0.583,0.341l-0.582,0.343l-0.581,0.345l-0.58,0.346l-0.579,0.349l-0.577,0.349l-0.576,0.352l-0.576,0.353l-0.574,0.355l-0.573,0.357l-0.571,0.358l-0.571,0.36l-0.57,0.362l-0.568,0.363l-0.567,0.365l-0.566,0.366l-0.565,0.369l-0.563,0.37l-0.563,0.371l-0.561,0.373l-0.56,0.375l-0.559,0.377l-0.558,0.378l-0.556,0.38l-0.556,0.381l-0.554,0.383l-0.553,0.385l-0.552,0.386l-0.55,0.388l-0.549,0.39l-0.548,0.391l-0.547,0.392l-0.546,0.395l-0.544,0.396l-0.544,0.397l-0.542,0.399l-0.54,0.401l-0.54,0.402l-0.538,0.404l-0.537,0.406l-0.536,0.407l-0.534,0.408l-0.533,0.41l-0.532,0.412l-0.531,0.413l-0.529,0.415l-0.528,0.417l-0.527,0.418l-0.526,0.419l-0.524,0.421l-0.523,0.423l-0.522,0.424l-0.52,0.426l-0.519,0.427l-0.518,0.429l-0.517,0.43l-0.515,0.431l-0.514,0.434l-0.512,0.435l-0.512,0.436l-0.51,0.438l-0.508,0.439l-0.507,0.441l-0.506,0.442l-0.505,0.444l-0.503,0.445l-0.502,0.447l-0.501,0.448l-0.499,0.45l-0.498,0.451l-0.496,0.453l-0.495,0.454l-0.494,0.455l-0.493,0.457l-0.491,0.459l-0.489,0.46l-0.489,0.461l-0.486,0.463l-0.486,0.464l-0.484,0.466l-0.483,0.467l-0.481,0.469l-0.48,0.47l-0.479,0.471l-0.477,0.473l-0.475,0.475l-0.475,0.475l-0.473,0.477l-0.471,0.479l-0.47,0.48l-0.469,0.481l-0.467,0.483l-0.466,0.484l-0.464,0.486l-0.463,0.486l-0.461,0.489l-0.46,0.489l-0.459,0.491l-0.457,0.493l-0.455,0.494l-0.454,0.495l-0.453,0.496l-0.451,0.498l-0.45,0.499l-0.448,0.501l-0.447,0.502l-0.445,0.503l-0.444,0.505l-0.442,0.506l-0.441,0.507l-0.439,0.508l-0.438,0.51l-0.436,0.512l-0.435,0.512l-0.434,0.514l-0.431,0.515l-0.43,0.517l-0.429,0.518l-0.427,0.519l-0.426,0.52l-0.424,0.522l-0.423,0.523l-0.421,0.524l-0.419,0.526l-0.418,0.527l-0.417,0.528l-0.415,0.529l-0.413,0.531l-0.412,0.532l-0.41,0.533l-0.408,0.534l-0.407,0.536l-0.406,0.537l-0.404,0.538l-0.402,0.54l-0.401,0.54l-0.399,0.542l-0.397,0.544l-0.396,0.544l-0.395,0.546l-0.392,0.547l-0.391,0.548l-0.39,0.549l-0.388,0.55l-0.386,0.552l-0.385,0.553l-0.383,0.554l-0.381,0.556l-0.38,0.556l-0.378,0.558l-0.377,0.559l-0.375,0.56l-0.373,0.561l-0.371,0.563l-0.37,0.563l-0.369,0.565l-0.366,0.566l-0.365,0.567l-0.363,0.568l-0.362,0.57l-0.36,0.571l-0.358,0.571l-0.357,0.573l-0.355,0.574l-0.353,0.576l-0.352,0.576l-0.349,0.577l-0.349,0.579l-0.346,0.58l-0.345,0.581l-0.343,0.582l-0.341,0.583l-0.34,0.584l-0.338,0.585l-0.336,0.587l-0.334,0.587l-0.333,0.589l-0.331,0.59l-0.329,0.59l-0.328,0.592l-0.326,0.593l-0.324,0.594l-0.322,0.595l-0.321,0.597l-0.318,0.597l-0.318,0.598l-0.315,0.6l-0.313,0.6l-0.312,0.602l-0.31,0.602l-0.308,0.604l-0.307,0.605l-0.304,0.606l-0.303,0.606l-0.301,0.608l-0.3,0.609l-0.297,0.61l-0.296,0.611l-0.294,0.612l-0.292,0.613l-0.29,0.614l-0.289,0.615l-0.286,0.616l-0.285,0.617l-0.283,0.618l-0.281,0.619l-0.28,0.62l-0.277,0.621l-0.276,0.622l-0.274,0.623l-0.272,0.623l-0.27,0.625l-0.268,0.626l-0.267,0.627l-0.264,0.628l-0.263,0.629l-0.261,0.63l-0.259,0.63l-0.257,0.632l-0.255,0.633l-0.254,0.633l-0.251,0.635l-0.25,0.635l-0.248,0.637l-0.246,0.637l-0.244,0.638l-0.242,0.639l-0.24,0.641l-0.238,0.641l-0.236,0.642l-0.235,0.642l-0.232,0.644l-0.231,0.645l-0.229,0.646l-0.227,0.646l-0.224,0.647l-0.223,0.649l-0.221,0.649l-0.219,0.65l-0.218,0.651l-0.215,0.652l-0.213,0.653l-0.211,0.653l-0.209,0.655l-0.208,0.655l-0.205,0.656l-0.204,0.657l-0.203,0.663l-0.098,0.324l-0.1,0.33l-0.099,0.33l-0.098,0.329l-0.098,0.331l-0.098,0.33l-0.097,0.331l-0.096,0.33l-0.096,0.331l-0.096,0.331l-0.095,0.332l-0.094,0.332l-0.094,0.331l-0.094,0.332l-0.093,0.333l-0.093,0.332l-0.092,0.333l-0.091,0.333l-0.091,0.333l-0.091,0.333l-0.09,0.333l-0.089,0.334l-0.09,0.334l-0.088,0.334l-0.088,0.334l-0.088,0.335l-0.087,0.334l-0.086,0.335l-0.086,0.335l-0.086,0.336l-0.085,0.335l-0.084,0.336l-0.084,0.336l-0.084,0.336l-0.083,0.336l-0.082,0.337l-0.082,0.336l-0.082,0.337l-0.081,0.337l-0.08,0.338l-0.08,0.337l-0.079,0.338l-0.079,0.338l-0.079,0.338l-0.078,0.338l-0.077,0.339l-0.077,0.338l-0.076,0.339l-0.076,0.339l-0.075,0.34l-0.075,0.339l-0.075,0.34l-0.073,0.34l-0.074,0.34l-0.072,0.34l-0.073,0.34l-0.071,0.341l-0.072,0.341l-0.07,0.341l-0.07,0.341l-0.07,0.341l-0.069,0.342l-0.069,0.341l-0.068,0.342l-0.067,0.342l-0.068,0.343l-0.066,0.342l-0.066,0.343l-0.066,0.343l-0.064,0.343l-0.065,0.343l-0.064,0.343l-0.063,0.344l-0.063,0.344l-0.062,0.344l-0.062,0.344l-0.062,0.344l-0.06,0.345l-0.061,0.344l-0.059,0.345l-0.06,0.346l-0.058,0.345l-0.058,0.345l-0.058,0.346l-0.057,0.346l-0.057,0.346l-0.056,0.346l-0.055,0.346l-0.055,0.346l-0.054,0.347l-0.054,0.347l-0.054,0.347l-0.053,0.347l-0.052,0.348l-0.052,0.347l-0.051,0.348l-0.051,0.348l-0.05,0.348l-0.049,0.348l-0.05,0.349l-0.048,0.348l-0.048,0.349l-0.048,0.349l-0.047,0.349l-0.046,0.35l-0.046,0.349l-0.045,0.35l-0.045,0.349l-0.044,0.35l-0.044,0.351l-0.043,0.35l-0.043,0.35l-0.042,0.351l-0.041,0.351l-0.042,0.351l-0.04,0.351l-0.04,0.351l-0.039,0.352l-0.039,0.352l-0.038,0.351l-0.038,0.352l-0.037,0.353l-0.037,0.352l-0.036,0.352l-0.036,0.353l-0.035,0.353l-0.034,0.353l-0.034,0.353l-0.034,0.353l-0.033,0.354l-0.032,0.354l-0.032,0.353l-0.031,0.354l-0.03,0.354l-0.03,0.355l-0.03,0.354l-0.029,0.355l-0.028,0.355l-0.028,0.354l-0.028,0.356l-0.026,0.355l-0.027,0.355l-0.025,0.356l-0.026,0.355l-0.024,0.356l-0.024,0.356l-0.024,0.357l-0.022,0.356l-0.023,0.356l-0.022,0.357l-0.021,0.357l-0.02,0.357l-0.021,0.357l-0.019,0.357l-0.019,0.358l-0.019,0.357l-0.017,0.358l-0.018,0.358l-0.016,0.358l-0.017,0.358l-0.015,0.358l-0.015,0.359l-0.015,0.358l-0.014,0.359l-0.013,0.359l-0.013,0.359l-0.012,0.359l-0.012,0.36l-0.011,0.359l-0.011,0.36l-0.01,0.36l-0.009,0.36l-0.009,0.36l-0.008,0.36l-0.008,0.36l-0.007,0.361l-0.007,0.36l-0.006,0.361l-0.005,0.361l-0.005,0.361l-0.004,0.362l-0.004,0.361l-0.003,0.362l-0.003,0.361l-0.002,0.362l-0.001,0.362l-0.001,0.362l0,0.362l0,0.363l0.001,0.362l0.001,0.362l0.002,0.361l0.003,0.362l0.003,0.362l0.004,0.361l0.004,0.361l0.005,0.361l0.005,0.361l0.006,0.361l0.007,0.361l0.007,0.36l0.008,0.361l0.008,0.36l0.009,0.36l0.009,0.36l0.01,0.36l0.011,0.36l0.011,0.359l0.012,0.359l0.012,0.36l0.013,0.359l0.013,0.359l0.014,0.358l0.015,0.359l0.015,0.358l0.015,0.359l0.017,0.358l0.016,0.358l0.018,0.358l0.017,0.358l0.019,0.357l0.019,0.358l0.019,0.357l0.021,0.357l0.02,0.357l0.021,0.357l0.022,0.356l0.023,0.357l0.022,0.356l0.024,0.356l0.024,0.356l0.024,0.356l0.026,0.356l0.025,0.355l0.027,0.356l0.026,0.355l0.028,0.355l0.028,0.355l0.028,0.355l0.029,0.354l0.03,0.355l0.03,0.354l0.03,0.354l0.031,0.354l0.032,0.354l0.032,0.354l0.033,0.353l0.034,0.354l0.034,0.353l0.034,0.353l0.035,0.352l0.036,0.353l0.036,0.353l0.037,0.352l0.037,0.352l0.038,0.352l0.038,0.352l0.039,0.352l0.039,0.351l0.04,0.352l0.04,0.351l0.042,0.351l0.041,0.351l0.042,0.35l0.043,0.351l0.043,0.35l0.044,0.35l0.044,0.35l0.045,0.35l0.045,0.35l0.046,0.349l0.046,0.349l0.047,0.35l0.048,0.349l0.048,0.348l0.048,0.349l0.05,0.348l0.049,0.349l0.05,0.348l0.051,0.348l0.051,0.347l0.052,0.348l0.052,0.347l0.053,0.348l0.054,0.347l0.054,0.347l0.054,0.346l0.055,0.347l0.055,0.346l0.056,0.346l0.057,0.346l0.057,0.346l0.058,0.346l0.058,0.345l0.058,0.345l0.06,0.345l0.059,0.345l0.061,0.345l0.06,0.344l0.062,0.345l0.062,0.344l0.062,0.344l0.063,0.344l0.063,0.343l0.064,0.344l0.065,0.343l0.064,0.343l0.066,0.343l0.066,0.343l0.067,0.342l0.067,0.342l0.067,0.342l0.068,0.342l0.069,0.342l0.069,0.342l0.07,0.341l0.07,0.341l0.07,0.341l0.072,0.341l0.071,0.34l0.073,0.341l0.072,0.34l0.074,0.34l0.073,0.34l0.075,0.34l0.075,0.339l0.075,0.339l0.076,0.339l0.076,0.339l0.077,0.339l0.077,0.338l0.078,0.339l0.079,0.338l0.079,0.338l0.079,0.337l0.08,0.338l0.08,0.337l0.081,0.337l0.082,0.337l0.082,0.337l0.082,0.336l0.083,0.337l0.084,0.336l0.084,0.336l0.084,0.336l0.085,0.335l0.086,0.335l0.086,0.335l0.086,0.335l0.087,0.335l0.088,0.334l0.088,0.335l0.088,0.334l0.09,0.334l0.089,0.333l0.09,0.334l0.091,0.333l0.091,0.333l0.091,0.333l0.092,0.333l0.093,0.332l0.093,0.332l0.094,0.332l0.094,0.332l0.094,0.332l0.095,0.331l0.096,0.331l0.096,0.331l0.096,0.331l0.097,0.331l0.098,0.33l0.098,0.33l0.098,0.33l0.099,0.33l0.1,0.329l0.099,0.325l0.202,0.662l0.204,0.657l0.205,0.657l0.208,0.655l0.209,0.654l0.211,0.654l0.213,0.653l0.215,0.652l0.218,0.651l0.219,0.65l0.221,0.649l0.223,0.648l0.224,0.648l0.227,0.646l0.229,0.646l0.231,0.644l0.232,0.644l0.235,0.643l0.236,0.642l0.238,0.641l0.24,0.64l0.242,0.639l0.244,0.639l0.246,0.637l0.248,0.636l0.25,0.636l0.251,0.634l0.254,0.634l0.255,0.633l0.257,0.631l0.259,0.631l0.261,0.63l0.263,0.629l0.264,0.627l0.267,0.627l0.268,0.626l0.27,0.625l0.272,0.624l0.274,0.623l0.276,0.622l0.277,0.621l0.28,0.62l0.281,0.619l0.283,0.618l0.285,0.617l0.286,0.616l0.289,0.615l0.29,0.614l0.292,0.613l0.294,0.612l0.296,0.611l0.297,0.61l0.3,0.609l0.301,0.607l0.303,0.607l0.304,0.606l0.307,0.605l0.308,0.603l0.31,0.603l0.312,0.601l0.313,0.601l0.315,0.599l0.318,0.599l0.318,0.597l0.321,0.596l0.322,0.595l0.324,0.594l0.326,0.593l0.328,0.592l0.329,0.591l0.331,0.59l0.333,0.589l0.334,0.587l0.336,0.586l0.338,0.586l0.34,0.584l0.341,0.583l0.343,0.582l0.345,0.581l0.346,0.58l0.349,0.578l0.349,0.578l0.352,0.576l0.353,0.575l0.355,0.574l0.357,0.573l0.358,0.572l0.36,0.571l0.362,0.569l0.363,0.569l0.365,0.567l0.366,0.566l0.369,0.564l0.37,0.564l0.371,0.562l0.373,0.562l0.375,0.56l0.377,0.559l0.378,0.558l0.38,0.556l0.381,0.556l0.383,0.554l0.385,0.553l0.386,0.551l0.388,0.551l0.39,0.549l0.391,0.548l0.392,0.547l0.395,0.546l0.396,0.544l0.397,0.543l0.399,0.542l0.401,0.541l0.402,0.539l0.404,0.539l0.406,0.537l0.407,0.535l0.408,0.535l0.411,0.533l0.411,0.532l0.413,0.53l0.415,0.53l0.417,0.528l0.418,0.527l0.419,0.526l0.421,0.524l0.423,0.523l0.424,0.522l0.426,0.52l0.427,0.519l0.428,0.518l0.431,0.516l0.432,0.516l0.433,0.513l0.434,0.513l0.437,0.511l0.438,0.51l0.439,0.509l0.441,0.507l0.442,0.506l0.444,0.505l0.445,0.503l0.447,0.502l0.448,0.5l0.45,0.499l0.451,0.498l0.453,0.497l0.454,0.495l0.455,0.494l0.457,0.492l0.459,0.491l0.46,0.49l0.461,0.488l0.463,0.487l0.464,0.486l0.466,0.484l0.467,0.482l0.469,0.482l0.47,0.48l0.471,0.478l0.473,0.477l0.474,0.476l0.476,0.474l0.477,0.473l0.479,0.472l0.48,0.47l0.481,0.468l0.483,0.468l0.484,0.465l0.485,0.465l0.487,0.462l0.489,0.462l0.489,0.46l0.491,0.458l0.493,0.457l0.494,0.456l0.495,0.454l0.496,0.453l0.498,0.451l0.499,0.45l0.501,0.448l0.502,0.447l0.503,0.445l0.505,0.444l0.505,0.442l0.508,0.441l0.508,0.439l0.51,0.438l0.512,0.436l0.512,0.435l0.514,0.433l0.515,0.432l0.517,0.43l0.518,0.429l0.519,0.427l0.52,0.426l0.522,0.424l0.523,0.422l0.524,0.421l0.526,0.42l0.526,0.418l0.529,0.416l0.529,0.415l0.531,0.413l0.532,0.412l0.533,0.41l0.534,0.409l0.536,0.407l0.537,0.406l0.538,0.403l0.54,0.403l0.54,0.4l0.542,0.399l0.544,0.398l0.544,0.396l0.545,0.394l0.547,0.393l0.548,0.391l0.55,0.39l0.55,0.388l0.552,0.386l0.553,0.385l0.554,0.382l0.555,0.382l0.557,0.38l0.558,0.378l0.559,0.376l0.56,0.375l0.561,0.373l0.563,0.372l0.563,0.37l0.565,0.368l0.566,0.367l0.567,0.365l0.568,0.363l0.57,0.362l0.571,0.36l0.571,0.358l0.573,0.357l0.574,0.355l0.576,0.353l0.576,0.351l0.577,0.35l0.579,0.348l0.58,0.347l0.581,0.345l0.582,0.343l0.583,0.341l0.584,0.34l0.585,0.337l0.587,0.337l0.587,0.334l0.589,0.333l0.59,0.331l0.59,0.329l0.592,0.328l0.593,0.325l0.594,0.324l0.596,0.323l0.596,0.32l0.597,0.319l0.598,0.317l0.6,0.315l0.6,0.314l0.602,0.312l0.603,0.31l0.603,0.308l0.605,0.306l0.606,0.305l0.606,0.303l0.608,0.301l0.609,0.299l0.61,0.298l0.611,0.295l0.612,0.294l0.613,0.292l0.614,0.291l0.614,0.288l0.617,0.287l0.617,0.285l0.618,0.283l0.619,0.281l0.62,0.279l0.62,0.278l0.622,0.275l0.624,0.274l0.624,0.272l0.624,0.271l0.626,0.268l0.627,0.266l0.628,0.265l0.629,0.263l0.63,0.261l0.63,0.259l0.632,0.257l0.633,0.255l0.633,0.253l0.635,0.252l0.635,0.25l0.637,0.247l0.637,0.246l0.638,0.244l0.639,0.242l0.641,0.241l0.641,0.238l0.641,0.236l0.643,0.235l0.644,0.232l0.645,0.231l0.646,0.229l0.646,0.226l0.647,0.225l0.649,0.223l0.649,0.221l0.65,0.219l0.651,0.217l0.652,0.215l0.652,0.213l0.654,0.212l0.655,0.209l0.655,0.208l0.656,0.205l0.657,0.203l0.663,0.203l0.325,0.099l0.328,0.099l0.331,0.099l0.33,0.099l0.329,0.098l0.331,0.097l0.331,0.097l0.33,0.097l0.331,0.096l0.331,0.095l0.332,0.096l0.332,0.094l0.332,0.094l0.331,0.094l0.332,0.093l0.333,0.092l0.333,0.093l0.332,0.091l0.333,0.091l0.334,0.09l0.333,0.091l0.335,0.089l0.333,0.089l0.333,0.089l0.335,0.088l0.335,0.087l0.334,0.087l0.335,0.087l0.336,0.086l0.334,0.085l0.336,0.085l0.336,0.085l0.336,0.084l0.336,0.083l0.336,0.083l0.337,0.083l0.337,0.082l0.336,0.081l0.337,0.081l0.338,0.081l0.337,0.08l0.338,0.079l0.338,0.079l0.338,0.078l0.338,0.078l0.338,0.078l0.34,0.077l0.338,0.076l0.34,0.076l0.339,0.075l0.339,0.075l0.339,0.074l0.34,0.074l0.341,0.073l0.34,0.073l0.341,0.072l0.34,0.072l0.34,0.071l0.342,0.071l0.341,0.07l0.341,0.07l0.341,0.069l0.342,0.068l0.343,0.069l0.341,0.067l0.342,0.067l0.344,0.067l0.342,0.066l0.343,0.065l0.343,0.065l0.343,0.065l0.343,0.064l0.344,0.063l0.343,0.063l0.344,0.062l0.345,0.062l0.345,0.061l0.344,0.061l0.344,0.06l0.345,0.06l0.345,0.059l0.346,0.059l0.346,0.058l0.345,0.058l0.346,0.057l0.345,0.056l0.347,0.056l0.346,0.056l0.346,0.055l0.347,0.054l0.347,0.054l0.347,0.053l0.347,0.053l0.348,0.053l0.347,0.051l0.348,0.052l0.348,0.05l0.349,0.051l0.348,0.049l0.347,0.049l0.349,0.049l0.349,0.048l0.349,0.047l0.349,0.047l0.349,0.047l0.35,0.046l0.35,0.045l0.349,0.045l0.35,0.044l0.351,0.044l0.35,0.043l0.35,0.042l0.351,0.043l0.351,0.041l0.35,0.041l0.352,0.041l0.352,0.04l0.351,0.039l0.351,0.039l0.352,0.038l0.353,0.038l0.352,0.037l0.352,0.037l0.352,0.036l0.353,0.035l0.353,0.036l0.353,0.034l0.353,0.034l0.353,0.033l0.354,0.033l0.353,0.032l0.354,0.032l0.354,0.031l0.355,0.031l0.354,0.03l0.354,0.03l0.355,0.029l0.355,0.028l0.354,0.028l0.355,0.027l0.356,0.027l0.355,0.026l0.356,0.026l0.355,0.025l0.356,0.025l0.356,0.024l0.357,0.023l0.356,0.023l0.356,0.022l0.357,0.022l0.357,0.021l0.357,0.021l0.357,0.02l0.357,0.02l0.358,0.019l0.357,0.018l0.358,0.018l0.358,0.017l0.357,0.017l0.359,0.016l0.358,0.016l0.359,0.015l0.359,0.015l0.358,0.013l0.359,0.014l0.359,0.013l0.359,0.012l0.359,0.012l0.361,0.011l0.359,0.01l0.359,0.01l0.36,0.01l0.361,0.009l0.36,0.008l0.36,0.008l0.361,0.007l0.36,0.006l0.361,0.006l0.361,0.006l0.362,0.005l0.36,0.004l0.362,0.004l0.362,0.003l0.361,0.002l0.362,0.002l0.362,0.002l0.363,0.001l0.361,0l0.362,0l0.363,-0.001l0.362,-0.002l0.362,-0.002l0.361,-0.002l0.362,-0.003l0.361,-0.004l0.361,-0.004l0.361,-0.005l0.361,-0.006l0.361,-0.006l0.361,-0.006l0.36,-0.007l0.361,-0.008l0.36,-0.008l0.36,-0.009l0.36,-0.01l0.36,-0.01l0.359,-0.01l0.36,-0.011l0.36,-0.012l0.358,-0.012l0.36,-0.013l0.359,-0.014l0.358,-0.013l0.359,-0.015l0.358,-0.015l0.359,-0.016l0.359,-0.016l0.357,-0.017l0.357,-0.017l0.359,-0.018l0.357,-0.018l0.358,-0.019l0.357,-0.02l0.356,-0.02l0.358,-0.021l0.357,-0.021l0.356,-0.022l0.357,-0.022l0.356,-0.023l0.356,-0.023l0.357,-0.024l0.355,-0.025l0.356,-0.025l0.356,-0.026l0.355,-0.026l0.355,-0.027l0.356,-0.027l0.353,-0.028l0.356,-0.028l0.355,-0.029l0.354,-0.03l0.354,-0.03l0.354,-0.031l0.354,-0.031l0.355,-0.032l0.353,-0.032l0.353,-0.033l0.354,-0.033l0.352,-0.034l0.354,-0.034l0.352,-0.035l0.353,-0.036l0.353,-0.036l0.352,-0.037l0.352,-0.037l0.353,-0.038l0.351,-0.038l0.351,-0.039l0.352,-0.039l0.352,-0.04l0.351,-0.041l0.35,-0.041l0.351,-0.041l0.352,-0.043l0.35,-0.042l0.349,-0.043l0.351,-0.044l0.351,-0.044l0.349,-0.045l0.349,-0.045l0.35,-0.046l0.349,-0.047l0.349,-0.047l0.349,-0.047l0.35,-0.048l0.349,-0.049l0.347,-0.049l0.348,-0.049l0.349,-0.051l0.348,-0.05l0.347,-0.052l0.348,-0.051l0.347,-0.053l0.348,-0.053l0.347,-0.053l0.346,-0.054l0.347,-0.054l0.346,-0.055l0.347,-0.056l0.346,-0.056l0.346,-0.056l0.346,-0.057l0.345,-0.058l0.346,-0.058l0.345,-0.059l0.346,-0.059l0.345,-0.06l0.344,-0.06l0.344,-0.061l0.344,-0.061l0.345,-0.062l0.344,-0.062l0.344,-0.063l0.343,-0.063l0.344,-0.064l0.342,-0.065l0.344,-0.065l0.343,-0.065l0.342,-0.066l0.343,-0.067l0.342,-0.067l0.342,-0.067l0.342,-0.069l0.342,-0.068l0.342,-0.069l0.341,-0.07l0.341,-0.07l0.342,-0.071l0.34,-0.071l0.34,-0.072l0.341,-0.072l0.34,-0.073l0.341,-0.073l0.339,-0.074l0.34,-0.074l0.339,-0.075l0.339,-0.075l0.34,-0.076l0.338,-0.076l0.339,-0.077l0.338,-0.078l0.338,-0.078l0.339,-0.078l0.338,-0.079l0.337,-0.079l0.338,-0.08l0.337,-0.081l0.338,-0.081l0.336,-0.081l0.336,-0.082l0.337,-0.083l0.337,-0.083l0.336,-0.083l0.336,-0.084l0.336,-0.085l0.335,-0.085l0.335,-0.085l0.335,-0.086l0.335,-0.087l0.334,-0.087l0.335,-0.087l0.335,-0.088l0.334,-0.089l0.333,-0.089l0.335,-0.089l0.333,-0.09l0.333,-0.091l0.333,-0.091l0.333,-0.091l0.332,-0.093l0.333,-0.092l0.333,-0.093l0.331,-0.094l0.332,-0.094l0.332,-0.094l0.331,-0.096l0.331,-0.095l0.331,-0.096l0.331,-0.097l0.331,-0.097l0.33,-0.097l0.33,-0.098l0.33,-0.099l0.33,-0.099l0.329,-0.099l0.325,-0.099l0.663,-0.203l0.656,-0.203l0.657,-0.205l0.655,-0.208l0.654,-0.209l0.654,-0.212l0.653,-0.213l0.651,-0.215l0.652,-0.217l0.65,-0.219l0.649,-0.221l0.648,-0.223l0.648,-0.225l0.646,-0.226l0.646,-0.229l0.644,-0.231l0.644,-0.232l0.643,-0.235l0.642,-0.236l0.641,-0.239l0.64,-0.24l0.64,-0.242l0.638,-0.244l0.637,-0.246l0.637,-0.247l0.635,-0.25l0.634,-0.252l0.634,-0.253l0.633,-0.255l0.632,-0.257l0.63,-0.259l0.63,-0.261l0.629,-0.263l0.628,-0.265l0.626,-0.266l0.626,-0.268l0.625,-0.271l0.624,-0.272l0.623,-0.274l0.622,-0.275l0.621,-0.278l0.62,-0.279l0.619,-0.281l0.618,-0.283l0.617,-0.285l0.616,-0.287l0.615,-0.288l0.614,-0.291l0.613,-0.292l0.612,-0.294l0.611,-0.295l0.609,-0.298l0.61,-0.299l0.607,-0.301l0.607,-0.303l0.606,-0.305l0.605,-0.306l0.603,-0.308l0.603,-0.31l0.602,-0.312l0.6,-0.314l0.599,-0.315l0.599,-0.317l0.597,-0.319l0.596,-0.32l0.595,-0.323l0.595,-0.324l0.592,-0.325l0.592,-0.328l0.591,-0.329l0.59,-0.331l0.589,-0.333l0.587,-0.335l0.587,-0.336l0.584,-0.337l0.585,-0.34l0.583,-0.341l0.582,-0.343l0.581,-0.345l0.58,-0.347l0.578,-0.348l0.578,-0.35l0.576,-0.351l0.575,-0.354l0.574,-0.354l0.573,-0.357l0.572,-0.358l0.57,-0.36l0.57,-0.362l0.569,-0.363l0.567,-0.365l0.566,-0.367l0.565,-0.368l0.563,-0.37l0.563,-0.372l0.561,-0.373l0.56,-0.375l0.559,-0.376l0.557,-0.378l0.557,-0.38l0.556,-0.382l0.553,-0.382l0.554,-0.385l0.551,-0.387l0.551,-0.387l0.549,-0.39l0.548,-0.391l0.547,-0.393l0.545,-0.394l0.545,-0.396l0.544,-0.398l0.541,-0.399l0.541,-0.4l0.539,-0.403l0.539,-0.404l0.537,-0.405l0.535,-0.407l0.535,-0.409l0.533,-0.41l0.532,-0.411l0.53,-0.414l0.53,-0.415l0.528,-0.416l0.527,-0.418l0.525,-0.419l0.525,-0.422l0.523,-0.422l0.522,-0.424l0.52,-0.426l0.519,-0.427l0.518,-0.429l0.517,-0.43l0.515,-0.432l0.513,-0.433l0.513,-0.435l0.512,-0.436l0.509,-0.438l0.509,-0.439l0.507,-0.441l0.506,-0.442l0.505,-0.444l0.503,-0.445l0.502,-0.447l0.5,-0.448l0.499,-0.45l0.499,-0.451l0.496,-0.453l0.495,-0.454l0.494,-0.456l0.492,-0.457l0.491,-0.458l0.49,-0.46l0.488,-0.462l0.487,-0.462l0.486,-0.465l0.484,-0.465l0.483,-0.468l0.481,-0.468l0.48,-0.47l0.478,-0.472l0.477,-0.473l0.476,-0.474l0.474,-0.476l0.473,-0.477l0.472,-0.478l0.47,-0.48l0.468,-0.481l0.468,-0.483l0.465,-0.484l0.465,-0.486l0.462,-0.487l0.462,-0.488l0.46,-0.49l0.458,-0.491l0.457,-0.492l0.456,-0.494l0.454,-0.495l0.453,-0.496l0.451,-0.499l0.45,-0.499l0.448,-0.5l0.447,-0.502l0.445,-0.503l0.444,-0.505l0.442,-0.506l0.441,-0.507l0.439,-0.509l0.438,-0.509l0.436,-0.512l0.435,-0.513l0.433,-0.513l0.432,-0.515l0.43,-0.517l0.429,-0.518l0.427,-0.519l0.426,-0.52l0.424,-0.522l0.422,-0.523l0.422,-0.525l0.419,-0.525l0.418,-0.527l0.416,-0.528l0.415,-0.53l0.414,-0.53l0.411,-0.532l0.41,-0.533l0.409,-0.535l0.407,-0.535l0.405,-0.537l0.404,-0.539l0.403,-0.539l0.4,-0.541l0.399,-0.541l0.398,-0.544l0.396,-0.545l0.394,-0.545l0.393,-0.547l0.391,-0.548l0.39,-0.549l0.387,-0.551l0.387,-0.551l0.385,-0.554l0.382,-0.553l0.382,-0.556l0.38,-0.557l0.378,-0.557l0.376,-0.559l0.375,-0.56l0.373,-0.561l0.372,-0.563l0.37,-0.563l0.368,-0.565l0.367,-0.566l0.365,-0.567l0.363,-0.569l0.362,-0.57l0.36,-0.57l0.358,-0.572l0.357,-0.573l0.354,-0.574l0.354,-0.575l0.351,-0.576l0.35,-0.578l0.348,-0.578l0.347,-0.58l0.345,-0.581l0.343,-0.582l0.341,-0.583l0.34,-0.585l0.337,-0.584l0.336,-0.587l0.335,-0.587l0.333,-0.589l0.331,-0.59l0.329,-0.591l0.328,-0.592l0.325,-0.592l0.324,-0.595l0.323,-0.595l0.32,-0.596l0.319,-0.597l0.317,-0.599l0.315,-0.599l0.314,-0.6l0.312,-0.602l0.31,-0.603l0.308,-0.603l0.306,-0.605l0.305,-0.606l0.303,-0.607l0.301,-0.607l0.299,-0.61l0.298,-0.609l0.295,-0.611l0.294,-0.612l0.292,-0.613l0.291,-0.614l0.288,-0.615l0.287,-0.616l0.285,-0.617l0.283,-0.618l0.281,-0.619l0.279,-0.62l0.278,-0.621l0.275,-0.622l0.274,-0.623l0.272,-0.624l0.271,-0.625l0.268,-0.626l0.266,-0.626l0.265,-0.628l0.263,-0.629l0.261,-0.63l0.259,-0.63l0.257,-0.632l0.255,-0.633l0.253,-0.634l0.252,-0.634l0.25,-0.635l0.247,-0.637l0.246,-0.637l0.244,-0.638l0.242,-0.64l0.24,-0.64l0.239,-0.641l0.236,-0.642l0.235,-0.643l0.232,-0.644l0.231,-0.644l0.229,-0.646l0.226,-0.646l0.225,-0.648l0.223,-0.648l0.221,-0.649l0.219,-0.65l0.217,-0.652l0.215,-0.651l0.213,-0.653l0.212,-0.654l0.209,-0.654l0.208,-0.655l0.205,-0.657l0.203,-0.656l0.203,-0.663l0.099,-0.325l0.099,-0.329l0.099,-0.33l0.099,-0.33l0.098,-0.33l0.097,-0.33l0.097,-0.331l0.097,-0.331l0.096,-0.331l0.095,-0.331l0.096,-0.331l0.094,-0.332l0.094,-0.332l0.094,-0.331l0.093,-0.333l0.092,-0.333l0.093,-0.332l0.091,-0.333l0.091,-0.333l0.091,-0.333l0.09,-0.333l0.089,-0.335l0.089,-0.333l0.089,-0.334l0.088,-0.335l0.087,-0.335l0.087,-0.334l0.087,-0.335l0.086,-0.335l0.085,-0.335l0.085,-0.335l0.085,-0.336l0.084,-0.336l0.083,-0.336l0.083,-0.337l0.083,-0.337l0.082,-0.336l0.081,-0.336l0.081,-0.338l0.081,-0.337l0.08,-0.338l0.079,-0.337l0.079,-0.338l0.078,-0.339l0.078,-0.338l0.078,-0.338l0.077,-0.339l0.076,-0.338l0.076,-0.34l0.075,-0.339l0.075,-0.339l0.074,-0.34l0.074,-0.339l0.073,-0.341l0.073,-0.34l0.072,-0.341l0.072,-0.34l0.071,-0.34l0.071,-0.342l0.07,-0.341l0.07,-0.341l0.069,-0.342l0.068,-0.342l0.069,-0.342l0.067,-0.342l0.067,-0.342l0.067,-0.343l0.066,-0.342l0.065,-0.343l0.065,-0.344l0.065,-0.342l0.064,-0.344l0.063,-0.343l0.063,-0.344l0.062,-0.344l0.062,-0.345l0.061,-0.344l0.061,-0.344l0.06,-0.344l0.06,-0.345l0.059,-0.346l0.059,-0.345l0.058,-0.346l0.058,-0.345l0.057,-0.346l0.056,-0.346l0.056,-0.346l0.056,-0.347l0.055,-0.346l0.054,-0.347l0.054,-0.346l0.053,-0.347l0.053,-0.348l0.053,-0.347l0.051,-0.348l0.052,-0.347l0.05,-0.348l0.051,-0.349l0.049,-0.348l0.049,-0.347l0.049,-0.349l0.048,-0.35l0.047,-0.349l0.047,-0.349l0.047,-0.349l0.046,-0.35l0.045,-0.349l0.045,-0.349l0.044,-0.351l0.044,-0.351l0.043,-0.349l0.042,-0.35l0.043,-0.352l0.041,-0.351l0.041,-0.35l0.041,-0.351l0.04,-0.352l0.039,-0.352l0.039,-0.351l0.038,-0.351l0.038,-0.353l0.037,-0.352l0.037,-0.352l0.036,-0.353l0.036,-0.353l0.035,-0.352l0.034,-0.354l0.034,-0.352l0.033,-0.354l0.033,-0.353l0.032,-0.353l0.032,-0.355l0.031,-0.354l0.031,-0.354l0.03,-0.354l0.03,-0.354l0.029,-0.355l0.028,-0.356l0.028,-0.353l0.027,-0.356l0.027,-0.355l0.026,-0.355l0.026,-0.356l0.025,-0.356l0.025,-0.355l0.024,-0.357l0.023,-0.356l0.023,-0.356l0.022,-0.357l0.022,-0.356l0.021,-0.357l0.021,-0.358l0.02,-0.356l0.02,-0.357l0.019,-0.358l0.018,-0.357l0.018,-0.359l0.017,-0.357l0.017,-0.357l0.016,-0.359l0.016,-0.359l0.015,-0.358l0.015,-0.359l0.013,-0.358l0.014,-0.359l0.013,-0.36l0.012,-0.358l0.012,-0.36l0.011,-0.36l0.01,-0.359l0.01,-0.36l0.01,-0.36l0.009,-0.36l0.008,-0.36l0.008,-0.361l0.007,-0.36l0.006,-0.361l0.006,-0.361l0.006,-0.361l0.005,-0.361l0.004,-0.361l0.004,-0.361l0.003,-0.362l0.002,-0.361l0.002,-0.362l0.002,-0.362l0.001,-0.363l0,-0.362l0,-0.361l-0.001,-0.363l-0.002,-0.362l-0.002,-0.362l-0.002,-0.361l-0.003,-0.362l-0.004,-0.362l-0.004,-0.36l-0.005,-0.362l-0.006,-0.361l-0.006,-0.361l-0.006,-0.36l-0.007,-0.361l-0.008,-0.36l-0.008,-0.36l-0.009,-0.361l-0.01,-0.36l-0.01,-0.359l-0.01,-0.359l-0.011,-0.361l-0.012,-0.359l-0.012,-0.359l-0.013,-0.359l-0.014,-0.359l-0.013,-0.358l-0.015,-0.359l-0.015,-0.359l-0.016,-0.358l-0.016,-0.359l-0.017,-0.357l-0.017,-0.358l-0.018,-0.358l-0.018,-0.357l-0.019,-0.358l-0.02,-0.357l-0.02,-0.357l-0.021,-0.357l-0.021,-0.357l-0.022,-0.357l-0.022,-0.356l-0.023,-0.356l-0.023,-0.357l-0.024,-0.356l-0.025,-0.356l-0.025,-0.355l-0.026,-0.356l-0.026,-0.355l-0.027,-0.356l-0.027,-0.355l-0.028,-0.354l-0.028,-0.355l-0.029,-0.355l-0.03,-0.354l-0.03,-0.354l-0.031,-0.355l-0.031,-0.354l-0.032,-0.354l-0.032,-0.353l-0.033,-0.354l-0.033,-0.353l-0.034,-0.353l-0.034,-0.353l-0.036,-0.353l-0.035,-0.353l-0.036,-0.352l-0.037,-0.352l-0.037,-0.352l-0.038,-0.353l-0.038,-0.352l-0.039,-0.351l-0.039,-0.351l-0.04,-0.352l-0.041,-0.352l-0.041,-0.35l-0.041,-0.351l-0.043,-0.351l-0.042,-0.35l-0.043,-0.35l-0.044,-0.351l-0.044,-0.35l-0.045,-0.349l-0.045,-0.35l-0.046,-0.35l-0.047,-0.349l-0.047,-0.349l-0.047,-0.349l-0.048,-0.349l-0.049,-0.349l-0.049,-0.347l-0.049,-0.348l-0.051,-0.349l-0.05,-0.348l-0.052,-0.348l-0.051,-0.347l-0.053,-0.348l-0.053,-0.347l-0.053,-0.347l-0.054,-0.347l-0.054,-0.347l-0.055,-0.346l-0.056,-0.346l-0.056,-0.347l-0.056,-0.345l-0.057,-0.346l-0.058,-0.345l-0.058,-0.346l-0.059,-0.346l-0.059,-0.345l-0.06,-0.345l-0.06,-0.344l-0.061,-0.344l-0.061,-0.345l-0.062,-0.345l-0.062,-0.344l-0.063,-0.343l-0.063,-0.344l-0.064,-0.343l-0.065,-0.343l-0.065,-0.343l-0.065,-0.343l-0.066,-0.342l-0.067,-0.344l-0.067,-0.342l-0.067,-0.341l-0.069,-0.343l-0.068,-0.342l-0.069,-0.341l-0.07,-0.341l-0.07,-0.341l-0.071,-0.342l-0.071,-0.34l-0.072,-0.34l-0.072,-0.341l-0.073,-0.34l-0.073,-0.341l-0.074,-0.34l-0.074,-0.339l-0.075,-0.339l-0.075,-0.339l-0.076,-0.34l-0.076,-0.338l-0.077,-0.34l-0.078,-0.338l-0.078,-0.338l-0.078,-0.338l-0.079,-0.338l-0.079,-0.338l-0.08,-0.337l-0.081,-0.338l-0.081,-0.337l-0.081,-0.336l-0.082,-0.337l-0.083,-0.337l-0.083,-0.336l-0.083,-0.336l-0.084,-0.336l-0.085,-0.336l-0.085,-0.336l-0.085,-0.334l-0.086,-0.336l-0.087,-0.335l-0.087,-0.334l-0.087,-0.335l-0.088,-0.335l-0.089,-0.333l-0.089,-0.333l-0.089,-0.335l-0.091,-0.333l-0.09,-0.334l-0.091,-0.333l-0.091,-0.332l-0.093,-0.333l-0.092,-0.333l-0.093,-0.332l-0.094,-0.331l-0.094,-0.332l-0.094,-0.332l-0.096,-0.332l-0.095,-0.331l-0.096,-0.331l-0.097,-0.33l-0.097,-0.331l-0.097,-0.331l-0.098,-0.329l-0.099,-0.33l-0.099,-0.331l-0.099,-0.328l-0.099,-0.325l-0.203,-0.663l-0.203,-0.657l-0.205,-0.656l-0.208,-0.655l-0.209,-0.655l-0.212,-0.654l-0.213,-0.652l-0.215,-0.652l-0.217,-0.651l-0.219,-0.65l-0.221,-0.649l-0.223,-0.649l-0.225,-0.647l-0.226,-0.646l-0.229,-0.646l-0.231,-0.645l-0.232,-0.644l-0.235,-0.643l-0.236,-0.641l-0.238,-0.641l-0.241,-0.641l-0.242,-0.639l-0.244,-0.638l-0.246,-0.637l-0.247,-0.637l-0.25,-0.635l-0.252,-0.635l-0.253,-0.633l-0.255,-0.633l-0.257,-0.632l-0.259,-0.63l-0.261,-0.63l-0.263,-0.629l-0.265,-0.628l-0.266,-0.627l-0.268,-0.626l-0.271,-0.624l-0.272,-0.624l-0.274,-0.624l-0.275,-0.622l-0.278,-0.62l-0.279,-0.62l-0.281,-0.619l-0.283,-0.618l-0.285,-0.617l-0.287,-0.617l-0.288,-0.614l-0.291,-0.614l-0.292,-0.613l-0.294,-0.612l-0.295,-0.611l-0.298,-0.61l-0.299,-0.609l-0.301,-0.608l-0.303,-0.606l-0.305,-0.606l-0.306,-0.605l-0.308,-0.603l-0.31,-0.603l-0.312,-0.602l-0.314,-0.6l-0.315,-0.6l-0.317,-0.598l-0.319,-0.597l-0.32,-0.596l-0.323,-0.596l-0.324,-0.594l-0.325,-0.593l-0.328,-0.592l-0.329,-0.59l-0.331,-0.59l-0.333,-0.589l-0.334,-0.587l-0.337,-0.587l-0.337,-0.585l-0.34,-0.584l-0.341,-0.583l-0.343,-0.582l-0.345,-0.581l-0.347,-0.58l-0.348,-0.579l-0.35,-0.577l-0.351,-0.576l-0.353,-0.576l-0.355,-0.574l-0.357,-0.573l-0.358,-0.571l-0.36,-0.571l-0.362,-0.57l-0.363,-0.568l-0.365,-0.567l-0.367,-0.566l-0.368,-0.565l-0.37,-0.563l-0.372,-0.563l-0.373,-0.561l-0.375,-0.56l-0.376,-0.559l-0.378,-0.558l-0.38,-0.557l-0.382,-0.555l-0.382,-0.554l-0.385,-0.553l-0.386,-0.552l-0.388,-0.55l-0.39,-0.55l-0.391,-0.548l-0.393,-0.547l-0.394,-0.545l-0.396,-0.544l-0.398,-0.544l-0.399,-0.542l-0.4,-0.54l-0.403,-0.54l-0.403,-0.538l-0.406,-0.537l-0.407,-0.536l-0.409,-0.534l-0.41,-0.533l-0.412,-0.532l-0.413,-0.531l-0.415,-0.529l-0.416,-0.529l-0.418,-0.526l-0.42,-0.526l-0.421,-0.524l-0.422,-0.523l-0.424,-0.522l-0.426,-0.52l-0.427,-0.519l-0.429,-0.518l-0.43,-0.517l-0.432,-0.515l-0.433,-0.514l-0.435,-0.512l-0.436,-0.512l-0.438,-0.51l-0.439,-0.508l-0.441,-0.508l-0.442,-0.505l-0.444,-0.505l-0.445,-0.503l-0.447,-0.502l-0.448,-0.501l-0.45,-0.499l-0.451,-0.498l-0.453,-0.496l-0.454,-0.495l-0.456,-0.494l-0.457,-0.493l-0.458,-0.491l-0.46,-0.489l-0.462,-0.489l-0.462,-0.487l-0.465,-0.485l-0.465,-0.484l-0.468,-0.483l-0.468,-0.481l-0.47,-0.48l-0.472,-0.479l-0.473,-0.477l-0.474,-0.476l-0.476,-0.474l-0.477,-0.473l-0.478,-0.471l-0.48,-0.47l-0.482,-0.469l-0.482,-0.467l-0.484,-0.466l-0.486,-0.464l-0.487,-0.463l-0.488,-0.461l-0.49,-0.46l-0.491,-0.459l-0.492,-0.457l-0.494,-0.455l-0.495,-0.454l-0.497,-0.453l-0.498,-0.451l-0.499,-0.45l-0.5,-0.448l-0.502,-0.447l-0.503,-0.445l-0.505,-0.444l-0.506,-0.442l-0.507,-0.441l-0.509,-0.439l-0.51,-0.438l-0.511,-0.437l-0.513,-0.434l-0.513,-0.433l-0.516,-0.432l-0.516,-0.431l-0.518,-0.428l-0.519,-0.427l-0.52,-0.426l-0.522,-0.424l-0.523,-0.423l-0.524,-0.421l-0.526,-0.419l-0.527,-0.418l-0.528,-0.417l-0.53,-0.415l-0.53,-0.413l-0.532,-0.411l-0.533,-0.411l-0.535,-0.408l-0.535,-0.407l-0.537,-0.406l-0.539,-0.404l-0.539,-0.402l-0.541,-0.401l-0.542,-0.399l-0.543,-0.397l-0.544,-0.396l-0.546,-0.395l-0.547,-0.392l-0.548,-0.391l-0.549,-0.39l-0.551,-0.388l-0.551,-0.386l-0.553,-0.385l-0.554,-0.383l-0.556,-0.381l-0.556,-0.38l-0.558,-0.378l-0.559,-0.377l-0.56,-0.375l-0.562,-0.373l-0.562,-0.371l-0.564,-0.37l-0.564,-0.369l-0.566,-0.366l-0.567,-0.365l-0.569,-0.363l-0.569,-0.362l-0.571,-0.36l-0.572,-0.358l-0.573,-0.357l-0.574,-0.355l-0.575,-0.353l-0.576,-0.352l-0.578,-0.349l-0.578,-0.349l-0.58,-0.346l-0.581,-0.345l-0.582,-0.343l-0.583,-0.341l-0.584,-0.34l-0.586,-0.338l-0.586,-0.336l-0.587,-0.334l-0.589,-0.333l-0.59,-0.331l-0.591,-0.329l-0.592,-0.328l-0.593,-0.326l-0.594,-0.324l-0.595,-0.322l-0.596,-0.321l-0.597,-0.318l-0.599,-0.318l-0.599,-0.315l-0.601,-0.313l-0.601,-0.312l-0.603,-0.31l-0.603,-0.308l-0.605,-0.307l-0.606,-0.304l-0.607,-0.303l-0.607,-0.301l-0.609,-0.3l-0.61,-0.297l-0.611,-0.296l-0.612,-0.294l-0.613,-0.292l-0.614,-0.29l-0.615,-0.289l-0.616,-0.286l-0.617,-0.285l-0.618,-0.283l-0.619,-0.281l-0.62,-0.28l-0.621,-0.277l-0.622,-0.276l-0.623,-0.274l-0.624,-0.272l-0.625,-0.27l-0.626,-0.268l-0.627,-0.267l-0.627,-0.264l-0.629,-0.263l-0.63,-0.261l-0.631,-0.259l-0.631,-0.257l-0.633,-0.255l-0.634,-0.254l-0.634,-0.251l-0.636,-0.25l-0.636,-0.248l-0.637,-0.246l-0.639,-0.244l-0.639,-0.242l-0.64,-0.24l-0.641,-0.238l-0.642,-0.236l-0.643,-0.235l-0.644,-0.232l-0.644,-0.231l-0.646,-0.229l-0.646,-0.227l-0.648,-0.224l-0.648,-0.223l-0.649,-0.221l-0.65,-0.219l-0.651,-0.218l-0.652,-0.215l-0.653,-0.213l-0.654,-0.211l-0.654,-0.209l-0.655,-0.208l-0.657,-0.205l-0.657,-0.204l-0.662,-0.202l-0.325,-0.099l-0.329,-0.1l-0.33,-0.099l-0.33,-0.098l-0.33,-0.098l-0.33,-0.098l-0.331,-0.097l-0.331,-0.096l-0.331,-0.096l-0.331,-0.096l-0.331,-0.095l-0.332,-0.094l-0.332,-0.094l-0.332,-0.094l-0.332,-0.093l-0.332,-0.093l-0.333,-0.092l-0.333,-0.091l-0.333,-0.091l-0.333,-0.091l-0.334,-0.09l-0.333,-0.089l-0.334,-0.09l-0.334,-0.088l-0.335,-0.088l-0.334,-0.088l-0.335,-0.087l-0.335,-0.086l-0.335,-0.086l-0.335,-0.086l-0.335,-0.085l-0.336,-0.084l-0.336,-0.084l-0.336,-0.084l-0.337,-0.083l-0.336,-0.082l-0.337,-0.082l-0.337,-0.082l-0.337,-0.081l-0.337,-0.08l-0.338,-0.08l-0.337,-0.079l-0.338,-0.079l-0.338,-0.079l-0.339,-0.078l-0.338,-0.077l-0.339,-0.077l-0.339,-0.076l-0.339,-0.076l-0.339,-0.075l-0.339,-0.075l-0.34,-0.075l-0.34,-0.073l-0.34,-0.074l-0.34,-0.072l-0.341,-0.073l-0.34,-0.071l-0.341,-0.072l-0.341,-0.07l-0.341,-0.07l-0.341,-0.07l-0.342,-0.069l-0.342,-0.069l-0.342,-0.068l-0.342,-0.067l-0.342,-0.067l-0.342,-0.067l-0.343,-0.066l-0.343,-0.066l-0.343,-0.064l-0.343,-0.065l-0.344,-0.064l-0.343,-0.063l-0.344,-0.063l-0.344,-0.062l-0.344,-0.062l-0.345,-0.062l-0.344,-0.06l-0.345,-0.061l-0.345,-0.059l-0.345,-0.06l-0.345,-0.058l-0.345,-0.058l-0.346,-0.058l-0.346,-0.057l-0.346,-0.057l-0.346,-0.056l-0.346,-0.055l-0.347,-0.055l-0.346,-0.054l-0.347,-0.054l-0.347,-0.054l-0.348,-0.053l-0.347,-0.052l-0.348,-0.052l-0.347,-0.051l-0.348,-0.051l-0.348,-0.05l-0.349,-0.049l-0.348,-0.05l-0.349,-0.048l-0.348,-0.048l-0.349,-0.048l-0.35,-0.047l-0.349,-0.046l-0.349,-0.046l-0.35,-0.045l-0.35,-0.045l-0.35,-0.044l-0.35,-0.044l-0.35,-0.043l-0.351,-0.043l-0.35,-0.042l-0.351,-0.041l-0.351,-0.042l-0.351,-0.04l-0.352,-0.04l-0.351,-0.039l-0.352,-0.039l-0.352,-0.038l-0.352,-0.038l-0.352,-0.037l-0.352,-0.037l-0.353,-0.036l-0.353,-0.036l-0.352,-0.035l-0.353,-0.034l-0.353,-0.034l-0.354,-0.034l-0.353,-0.033l-0.354,-0.032l-0.354,-0.032l-0.354,-0.031l-0.354,-0.03l-0.354,-0.03l-0.355,-0.03l-0.354,-0.029l-0.355,-0.028l-0.355,-0.028l-0.355,-0.028l-0.355,-0.026l-0.356,-0.027l-0.355,-0.025l-0.356,-0.026l-0.356,-0.024l-0.356,-0.024l-0.356,-0.024l-0.356,-0.022l-0.357,-0.023l-0.356,-0.022l-0.357,-0.021l-0.357,-0.02l-0.357,-0.021l-0.357,-0.019l-0.358,-0.019l-0.357,-0.019l-0.358,-0.017l-0.358,-0.018l-0.358,-0.016l-0.358,-0.017l-0.359,-0.015l-0.358,-0.015l-0.359,-0.015l-0.358,-0.014l-0.359,-0.013l-0.359,-0.013l-0.36,-0.012l-0.359,-0.012l-0.359,-0.011l-0.36,-0.011l-0.36,-0.01l-0.36,-0.009l-0.36,-0.009l-0.36,-0.008l-0.361,-0.008l-0.36,-0.007l-0.361,-0.007l-0.361,-0.006l-0.361,-0.005l-0.361,-0.005l-0.361,-0.004l-0.361,-0.004l-0.362,-0.003l-0.362,-0.003l-0.361,-0.002l-0.362,-0.001l-0.362,-0.001l-0.363,0l-0.362,0Z" style="fill:#3698d4;"/><path d="M149.192,319.731c-15.45,0 -26.053,-6.465 -25.753,-18.325c0.315,-12.494 12.431,-18.444 28.434,-18.444l35.059,0c-4.74,-8.362 -9.64,-16.093 -15.503,-22.118l-23.228,0c-24.925,0 -51.787,9.122 -51.787,41.512c0,23.178 15.481,40.556 49.062,40.556c0.294,0 0.585,-0.009 0.878,-0.012c0.172,0.003 0.344,0.012 0.516,0.012c23.809,0 44.547,-13.384 55.097,-33.018c-5.019,-8.041 -13.885,-24.566 -13.885,-24.566c-2.996,7.994 -15.259,33.903 -38.89,34.403m238.203,-101.828c-24.463,0 -45.672,14.134 -55.934,34.656c6.7,9.96 12.631,20.5 18.775,29.947l0,-2.1c0,-20.487 16.668,-37.162 37.159,-37.162c20.491,0 37.162,16.675 37.162,37.162c0,20.494 -16.671,37.166 -37.162,37.166c-29.616,0 -42.175,-35.722 -62.503,-64.394l0,-100.553c0,-3.206 -2.006,-4.141 -4.456,-2.069l-16.432,13.872c-2.453,2.066 -4.456,6.384 -4.456,9.591l0,53.44c-9.2,-5.884 -20.062,-9.547 -33.422,-9.556c-23.209,0 -43.487,12.725 -54.269,31.553c5.16,7.613 14.088,23.419 14.088,23.419c3.444,-8.172 17.528,-29.631 40.181,-29.631c8.106,0.222 14.881,2.584 20.81,6.39c9.859,6.691 16.353,17.988 16.353,30.772c0,20.494 -16.672,37.106 -37.163,37.166c-6.384,0.019 -20.547,-4.963 -31.112,-19.563c-20.888,-28.856 -34.116,-79.906 -85.707,-80.056c-13.134,-0.037 -34.24,6.503 -45.456,17.163c-2.919,2.921 0.135,4.665 0.135,4.665l16.384,9.46c0,0 3.184,2.087 6.891,-0.379c5.696,-3.553 12.415,-5.615 19.609,-5.615l0.066,0c53.856,0.787 44.618,99.665 119.19,99.665c27.056,0 50.085,-17.309 58.766,-41.415l0,93.984c0,3.21 2.003,4.141 4.456,2.072l16.431,-13.872c2.45,-2.069 4.457,-6.387 4.457,-9.594l0,-43.084c9.7,7.269 21.615,11.909 37.159,11.909c34.466,0 62.506,-28.037 62.506,-62.506c0,-34.462 -28.04,-62.503 -62.506,-62.503" style="fill:#79b448;fill-rule:nonzero;"/></g></svg>